<svg width="16" height="25" viewBox="0 0 16 25" fill="none" xmlns="http://www.w3.org/2000/svg">
<path d="M7.29289 24.7071C7.68342 25.0976 8.31658 25.0976 8.70711 24.7071L15.0711 18.3431C15.4616 17.9526 15.4616 17.3195 15.0711 16.9289C14.6805 16.5384 14.0474 16.5384 13.6569 16.9289L8 22.5858L2.34315 16.9289C1.95262 16.5384 1.31946 16.5384 0.928931 16.9289C0.538407 17.3195 0.538407 17.9526 0.928931 18.3431L7.29289 24.7071ZM7 -4.37114e-08C7 0.0033811 7 0.00681283 7 0.010295C7 0.0137771 7 0.0173097 7 0.0208925C7 0.0244754 7 0.0281085 7 0.0317917C7 0.0354749 7 0.0392082 7 0.0429915C7 0.0467748 7 0.050608 7 0.0544911C7 0.0583741 7 0.0623069 7 0.0662894C7 0.0702719 7 0.074304 7 0.0783856C7 0.0824672 7 0.0865983 7 0.0907787C7 0.0949591 7 0.0991889 7 0.103468C7 0.107747 7 0.112075 7 0.116452C7 0.120829 7 0.125255 7 0.12973C7 0.134205 7 0.138729 7 0.143301C7 0.147874 7 0.152495 7 0.157165C7 0.161835 7 0.166553 7 0.17132C7 0.176087 7 0.180902 7 0.185765C7 0.190629 7 0.19554 7 0.2005C7 0.20546 7 0.210467 7 0.215523C7 0.220579 7 0.225682 7 0.230834C7 0.235985 7 0.241184 7 0.246431C7 0.251678 7 0.256972 7 0.262314C7 0.267656 7 0.273045 7 0.278481C7 0.283918 7 0.289402 7 0.294933C7 0.300464 7 0.306042 7 0.311667C7 0.317292 7 0.322964 7 0.328683C7 0.334402 7 0.340168 7 0.345981C7 0.351793 7 0.357652 7 0.363558C7 0.369463 7 0.375416 7 0.381414C7 0.387413 7 0.393458 7 0.399549C7 0.40564 7 0.411777 7 0.41796C7 0.424144 7 0.430373 7 0.436648C7 0.442924 7 0.449245 7 0.455612C7 0.461979 7 0.468391 7 0.474849C7 0.481308 7 0.487811 7 0.494361C7 0.50091 7 0.507505 7 0.514144C7 0.520784 7 0.52747 7 0.5342C7 0.54093 7 0.547706 7 0.554526C7 0.561346 7 0.568212 7 0.575122C7 0.582032 7 0.588987 7 0.595986C7 0.602986 7 0.61003 7 0.617119C7 0.624207 7 0.631341 7 0.638518C7 0.645696 7 0.652917 7 0.660183C7 0.667449 7 0.674759 7 0.682114C7 0.689468 7 0.696866 7 0.704308C7 0.71175 7 0.719236 7 0.726766C7 0.734295 7 0.741869 7 0.749486C7 0.757102 7 0.764763 7 0.772467C7 0.780171 7 0.787918 7 0.795708C7 0.803499 7 0.811332 7 0.819209C7 0.827086 7 0.835006 7 0.842968C7 0.850931 7 0.858937 7 0.866985C7 0.875034 7 0.883125 7 0.891259C7 0.899393 7 0.907569 7 0.915788C7 0.924007 7 0.932268 7 0.940572C7 0.948876 7 0.957222 7 0.96561C7 0.973998 7 0.982428 7 0.9909C7 0.999372 7 1.00789 7 1.01644C7 1.025 7 1.0336 7 1.04224C7 1.05088 7 1.05956 7 1.06828C7 1.077 7 1.08577 7 1.09457C7 1.10338 7 1.11222 7 1.12111C7 1.13 7 1.13893 7 1.1479C7 1.15687 7 1.16588 7 1.17494C7 1.18399 7 1.19308 7 1.20221C7 1.21135 7 1.22052 7 1.22974C7 1.23895 7 1.24821 7 1.25751C7 1.2668 7 1.27614 7 1.28552C7 1.29489 7 1.30431 7 1.31377C7 1.32323 7 1.33272 7 1.34226C7 1.3518 7 1.36138 7 1.37099C7 1.38061 7 1.39027 7 1.39996C7 1.40966 7 1.4194 7 1.42917C7 1.43895 7 1.44876 7 1.45862C7 1.46847 7 1.47837 7 1.4883C7 1.49823 7 1.5082 7 1.51822C7 1.52823 7 1.53828 7 1.54837C7 1.55846 7 1.56858 7 1.57875C7 1.58892 7 1.59912 7 1.60937C7 1.61961 7 1.62989 7 1.64021C7 1.65053 7 1.66089 7 1.67129C7 1.68169 7 1.69212 7 1.7026C7 1.71307 7 1.72358 7 1.73413C7 1.74468 7 1.75527 7 1.7659C7 1.77652 7 1.78719 7 1.79789C7 1.80859 7 1.81933 7 1.8301C7 1.84088 7 1.85169 7 1.86254C7 1.87339 7 1.88428 7 1.89521C7 1.90613 7 1.91709 7 1.92809C7 1.93909 7 1.95013 7 1.9612C7 1.97228 7 1.98339 7 1.99453C7 2.00568 7 2.01686 7 2.02808C7 2.0393 7 2.05056 7 2.06185C7 2.07314 7 2.08447 7 2.09584C7 2.1072 7 2.1186 7 2.13004C7 2.14148 7 2.15295 7 2.16446C7 2.17597 7 2.18752 7 2.1991C7 2.21068 7 2.2223 7 2.23395C7 2.2456 7 2.25729 7 2.26901C7 2.28074 7 2.2925 7 2.30429C7 2.31608 7 2.32791 7 2.33978C7 2.35164 7 2.36354 7 2.37548C7 2.38741 7 2.39938 7 2.41138C7 2.42339 7 2.43543 7 2.4475C7 2.45958 7 2.47168 7 2.48383C7 2.49597 7 2.50815 7 2.52036C7 2.53257 7 2.54482 7 2.5571C7 2.56938 7 2.58169 7 2.59404C7 2.60639 7 2.61877 7 2.63119C7 2.6436 7 2.65605 7 2.66854C7 2.68102 7 2.69354 7 2.70609C7 2.71864 7 2.73122 7 2.74384C7 2.75646 7 2.76911 7 2.7818C7 2.79448 7 2.8072 7 2.81995C7 2.8327 7 2.84549 7 2.8583C7 2.87112 7 2.88397 7 2.89685C7 2.90973 7 2.92265 7 2.9356C7 2.94855 7 2.96153 7 2.97454C7 2.98755 7 3.0006 7 3.01368C7 3.02675 7 3.03986 7 3.05301C7 3.06615 7 3.07932 7 3.09253C7 3.10574 7 3.11897 7 3.13225C7 3.14552 7 3.15882 7 3.17215C7 3.18548 7 3.19885 7 3.21225C7 3.22564 7 3.23907 7 3.25253C7 3.26599 7 3.27948 7 3.29301C7 3.30653 7 3.32008 7 3.33367C7 3.34725 7 3.36087 7 3.37451C7 3.38816 7 3.40184 7 3.41555C7 3.42925 7 3.44299 7 3.45676C7 3.47053 7 3.48433 7 3.49816C7 3.51199 7 3.52585 7 3.53975C7 3.55364 7 3.56756 7 3.58151C7 3.59546 7 3.60944 7 3.62345C7 3.63747 7 3.65151 7 3.66558C7 3.67965 7 3.69375 7 3.70788C7 3.72201 7 3.73617 7 3.75036C7 3.76455 7 3.77877 7 3.79302C7 3.80727 7 3.82155 7 3.83586C7 3.85016 7 3.8645 7 3.87887C7 3.89323 7 3.90763 7 3.92205C7 3.93647 7 3.95093 7 3.96541C7 3.97989 7 3.9944 7 4.00893C7 4.02347 7 4.03804 7 4.05264C7 4.06723 7 4.08185 7 4.09651C7 4.11116 7 4.12584 7 4.14055C7 4.15525 7 4.16999 7 4.18475C7 4.19952 7 4.21431 7 4.22913C7 4.24395 7 4.2588 7 4.27367C7 4.28855 7 4.30345 7 4.31838C7 4.33331 7 4.34827 7 4.36325C7 4.37824 7 4.39325 7 4.40829C7 4.42333 7 4.4384 7 4.45349C7 4.46858 7 4.4837 7 4.49885C7 4.514 7 4.52917 7 4.54437C7 4.55957 7 4.5748 7 4.59006C7 4.60531 7 4.62059 7 4.6359C7 4.6512 7 4.66654 7 4.6819C7 4.69726 7 4.71264 7 4.72805C7 4.74347 7 4.7589 7 4.77437C7 4.78983 7 4.80532 7 4.82084C7 4.83635 7 4.85189 7 4.86746C7 4.88303 7 4.89862 7 4.91424C7 4.92985 7 4.9455 7 4.96117C7 4.97683 7 4.99253 7 5.00825C7 5.02396 7 5.03971 7 5.05548C7 5.07125 7 5.08704 7 5.10286C7 5.11868 7 5.13452 7 5.15039C7 5.16626 7 5.18215 7 5.19807C7 5.21398 7 5.22993 7 5.24589C7 5.26186 7 5.27785 7 5.29386C7 5.30988 7 5.32591 7 5.34198C7 5.35804 7 5.37413 7 5.39024C7 5.40635 7 5.42248 7 5.43864C7 5.4548 7 5.47098 7 5.48719C7 5.50339 7 5.51962 7 5.53587C7 5.55212 7 5.5684 7 5.5847C7 5.601 7 5.61732 7 5.63367C7 5.65001 7 5.66638 7 5.68277C7 5.69916 7 5.71558 7 5.73201C7 5.74845 7 5.76491 7 5.78139C7 5.79787 7 5.81438 7 5.83091C7 5.84743 7 5.86398 7 5.88056C7 5.89713 7 5.91372 7 5.93034C7 5.94696 7 5.96359 7 5.98025C7 5.99692 7 6.0136 7 6.0303C7 6.04701 7 6.06373 7 6.08048C7 6.09723 7 6.114 7 6.13079C7 6.14758 7 6.16439 7 6.18123C7 6.19806 7 6.21492 7 6.23179C7 6.24867 7 6.26557 7 6.28249C7 6.29941 7 6.31635 7 6.33331C7 6.35027 7 6.36725 7 6.38425C7 6.40126 7 6.41828 7 6.43532C7 6.45237 7 6.46943 7 6.48652C7 6.5036 7 6.52071 7 6.53783C7 6.55496 7 6.5721 7 6.58927C7 6.60643 7 6.62362 7 6.64083C7 6.65803 7 6.67526 7 6.6925C7 6.70975 7 6.72702 7 6.7443C7 6.76159 7 6.77889 7 6.79621C7 6.81354 7 6.83088 7 6.84825C7 6.86561 7 6.88299 7 6.90039C7 6.91779 7 6.93522 7 6.95266C7 6.9701 7 6.98755 7 7.00503C7 7.02251 7 7.04001 7 7.05752C7 7.07504 7 7.09257 7 7.11012C7 7.12768 7 7.14525 7 7.16284C7 7.18043 7 7.19803 7 7.21566C7 7.23329 7 7.25093 7 7.26859C7 7.28625 7 7.30394 7 7.32163C7 7.33933 7 7.35705 7 7.37478C7 7.39252 7 7.41027 7 7.42804C7 7.44581 7 7.46359 7 7.4814C7 7.4992 7 7.51703 7 7.53486C7 7.5527 7 7.57056 7 7.58843C7 7.60631 7 7.6242 7 7.64211C7 7.66001 7 7.67794 7 7.69588C7 7.71382 7 7.73178 7 7.74976C7 7.76773 7 7.78572 7 7.80373C7 7.82174 7 7.83977 7 7.85781C7 7.87585 7 7.89391 7 7.91198C7 7.93005 7 7.94814 7 7.96625C7 7.98436 7 8.00248 7 8.02062C7 8.03875 7 8.05691 7 8.07508C7 8.09325 7 8.11143 7 8.12963C7 8.14783 7 8.16605 7 8.18428C7 8.20251 7 8.22076 7 8.23903C7 8.25729 7 8.27557 7 8.29386C7 8.31215 7 8.33046 7 8.34878C7 8.36711 7 8.38544 7 8.4038C7 8.42215 7 8.44052 7 8.4589C7 8.47728 7 8.49568 7 8.51409C7 8.5325 7 8.55093 7 8.56937C7 8.58781 7 8.60626 7 8.62473C7 8.6432 7 8.66168 7 8.68018C7 8.69868 7 8.71719 7 8.73571C7 8.75424 7 8.77278 7 8.79133C7 8.80988 7 8.82845 7 8.84703C7 8.86561 7 8.8842 7 8.90281C7 8.92141 7 8.94003 7 8.95867C7 8.9773 7 8.99595 7 9.01461C7 9.03327 7 9.05194 7 9.07062C7 9.08931 7 9.10801 7 9.12672C7 9.14543 7 9.16415 7 9.18289C7 9.20163 7 9.22038 7 9.23914C7 9.2579 7 9.27668 7 9.29546C7 9.31425 7 9.33305 7 9.35186C7 9.37067 7 9.38949 7 9.40833C7 9.42716 7 9.44601 7 9.46487C7 9.48373 7 9.5026 7 9.52148C7 9.54036 7 9.55926 7 9.57816C7 9.59707 7 9.61598 7 9.63491C7 9.65384 7 9.67278 7 9.69173C7 9.71068 7 9.72965 7 9.74862C7 9.76759 7 9.78658 7 9.80557C7 9.82457 7 9.84357 7 9.86259C7 9.88161 7 9.90063 7 9.91967C7 9.93871 7 9.95776 7 9.97682C7 9.99588 7 10.0149 7 10.034C7 10.0531 7 10.0722 7 10.0913C7 10.1104 7 10.1295 7 10.1486C7 10.1677 7 10.1869 7 10.206C7 10.2252 7 10.2443 7 10.2635C7 10.2826 7 10.3018 7 10.321C7 10.3402 7 10.3593 7 10.3785C7 10.3977 7 10.4169 7 10.4362C7 10.4554 7 10.4746 7 10.4938C7 10.5131 7 10.5323 7 10.5516C7 10.5708 7 10.5901 7 10.6093C7 10.6286 7 10.6479 7 10.6672C7 10.6865 7 10.7058 7 10.7251C7 10.7444 7 10.7637 7 10.783C7 10.8023 7 10.8217 7 10.841C7 10.8603 7 10.8797 7 10.899C7 10.9184 7 10.9377 7 10.9571C7 10.9765 7 10.9959 7 11.0152C7 11.0346 7 11.054 7 11.0734C7 11.0928 7 11.1122 7 11.1316C7 11.151 7 11.1705 7 11.1899C7 11.2093 7 11.2288 7 11.2482C7 11.2676 7 11.2871 7 11.3065C7 11.326 7 11.3455 7 11.3649C7 11.3844 7 11.4039 7 11.4234C7 11.4428 7 11.4623 7 11.4818C7 11.5013 7 11.5208 7 11.5403C7 11.5598 7 11.5794 7 11.5989C7 11.6184 7 11.6379 7 11.6575C7 11.677 7 11.6965 7 11.7161C7 11.7356 7 11.7552 7 11.7747C7 11.7943 7 11.8138 7 11.8334C7 11.853 7 11.8725 7 11.8921C7 11.9117 7 11.9313 7 11.9509C7 11.9705 7 11.99 7 12.0096C7 12.0292 7 12.0488 7 12.0685C7 12.0881 7 12.1077 7 12.1273C7 12.1469 7 12.1665 7 12.1862C7 12.2058 7 12.2254 7 12.245C7 12.2647 7 12.2843 7 12.304C7 12.3236 7 12.3432 7 12.3629C7 12.3826 7 12.4022 7 12.4219C7 12.4415 7 12.4612 7 12.4809C7 12.5005 7 12.5202 7 12.5399C7 12.5595 7 12.5792 7 12.5989C7 12.6186 7 12.6383 7 12.658C7 12.6776 7 12.6973 7 12.717C7 12.7367 7 12.7564 7 12.7761C7 12.7958 7 12.8155 7 12.8352C7 12.8549 7 12.8746 7 12.8944C7 12.9141 7 12.9338 7 12.9535C7 12.9732 7 12.9929 7 13.0126C7 13.0324 7 13.0521 7 13.0718C7 13.0915 7 13.1113 7 13.131C7 13.1507 7 13.1705 7 13.1902C7 13.2099 7 13.2297 7 13.2494C7 13.2691 7 13.2889 7 13.3086C7 13.3284 7 13.3481 7 13.3678C7 13.3876 7 13.4073 7 13.4271C7 13.4468 7 13.4666 7 13.4863C7 13.5061 7 13.5258 7 13.5456C7 13.5653 7 13.5851 7 13.6048C7 13.6246 7 13.6443 7 13.6641C7 13.6838 7 13.7036 7 13.7233C7 13.7431 7 13.7628 7 13.7826C7 13.8023 7 13.8221 7 13.8418C7 13.8616 7 13.8814 7 13.9011C7 13.9209 7 13.9406 7 13.9604C7 13.9801 7 13.9999 7 14.0196C7 14.0394 7 14.0591 7 14.0789C7 14.0987 7 14.1184 7 14.1382C7 14.1579 7 14.1777 7 14.1974C7 14.2172 7 14.2369 7 14.2567C7 14.2764 7 14.2962 7 14.3159C7 14.3356 7 14.3554 7 14.3751C7 14.3949 7 14.4146 7 14.4344C7 14.4541 7 14.4738 7 14.4936C7 14.5133 7 14.5331 7 14.5528C7 14.5725 7 14.5923 7 14.612C7 14.6317 7 14.6515 7 14.6712C7 14.6909 7 14.7106 7 14.7304C7 14.7501 7 14.7698 7 14.7895C7 14.8092 7 14.829 7 14.8487C7 14.8684 7 14.8881 7 14.9078C7 14.9275 7 14.9472 7 14.9669C7 14.9866 7 15.0063 7 15.026C7 15.0457 7 15.0654 7 15.0851C7 15.1048 7 15.1245 7 15.1442C7 15.1638 7 15.1835 7 15.2032C7 15.2229 7 15.2425 7 15.2622C7 15.2819 7 15.3016 7 15.3212C7 15.3409 7 15.3605 7 15.3802C7 15.3998 7 15.4195 7 15.4391C7 15.4588 7 15.4784 7 15.4981C7 15.5177 7 15.5373 7 15.557C7 15.5766 7 15.5962 7 15.6159C7 15.6355 7 15.6551 7 15.6747C7 15.6943 7 15.7139 7 15.7335C7 15.7531 7 15.7727 7 15.7923C7 15.8119 7 15.8315 7 15.8511C7 15.8707 7 15.8902 7 15.9098C7 15.9294 7 15.9489 7 15.9685C7 15.9881 7 16.0076 7 16.0272C7 16.0467 7 16.0663 7 16.0858C7 16.1053 7 16.1249 7 16.1444C7 16.1639 7 16.1834 7 16.2029C7 16.2225 7 16.242 7 16.2615C7 16.281 7 16.3005 7 16.32C7 16.3394 7 16.3589 7 16.3784C7 16.3979 7 16.4173 7 16.4368C7 16.4563 7 16.4757 7 16.4952C7 16.5146 7 16.5341 7 16.5535C7 16.5729 7 16.5924 7 16.6118C7 16.6312 7 16.6506 7 16.67C7 16.6894 7 16.7088 7 16.7282C7 16.7476 7 16.767 7 16.7864C7 16.8057 7 16.8251 7 16.8445C7 16.8638 7 16.8832 7 16.9025C7 16.9219 7 16.9412 7 16.9605C7 16.9799 7 16.9992 7 17.0185C7 17.0378 7 17.0571 7 17.0764C7 17.0957 7 17.115 7 17.1343C7 17.1535 7 17.1728 7 17.1921C7 17.2113 7 17.2306 7 17.2498C7 17.2691 7 17.2883 7 17.3075C7 17.3267 7 17.346 7 17.3652C7 17.3844 7 17.4036 7 17.4227C7 17.4419 7 17.4611 7 17.4803C7 17.4994 7 17.5186 7 17.5378C7 17.5569 7 17.576 7 17.5952C7 17.6143 7 17.6334 7 17.6525C7 17.6716 7 17.6907 7 17.7098C7 17.7289 7 17.748 7 17.7671C7 17.7861 7 17.8052 7 17.8242C7 17.8433 7 17.8623 7 17.8813C7 17.9004 7 17.9194 7 17.9384C7 17.9574 7 17.9764 7 17.9954C7 18.0144 7 18.0333 7 18.0523C7 18.0713 7 18.0902 7 18.1091C7 18.1281 7 18.147 7 18.1659C7 18.1848 7 18.2037 7 18.2226C7 18.2415 7 18.2604 7 18.2793C7 18.2981 7 18.317 7 18.3359C7 18.3547 7 18.3735 7 18.3924C7 18.4112 7 18.43 7 18.4488C7 18.4676 7 18.4864 7 18.5051C7 18.5239 7 18.5427 7 18.5614C7 18.5802 7 18.5989 7 18.6176C7 18.6363 7 18.6551 7 18.6738C7 18.6924 7 18.7111 7 18.7298C7 18.7485 7 18.7671 7 18.7858C7 18.8044 7 18.8231 7 18.8417C7 18.8603 7 18.8789 7 18.8975C7 18.9161 7 18.9347 7 18.9532C7 18.9718 7 18.9903 7 19.0089C7 19.0274 7 19.0459 7 19.0644C7 19.083 7 19.1015 7 19.1199C7 19.1384 7 19.1569 7 19.1753C7 19.1938 7 19.2122 7 19.2307C7 19.2491 7 19.2675 7 19.2859C7 19.3043 7 19.3227 7 19.341C7 19.3594 7 19.3777 7 19.3961C7 19.4144 7 19.4327 7 19.451C7 19.4693 7 19.4876 7 19.5059C7 19.5242 7 19.5425 7 19.5607C7 19.5789 7 19.5972 7 19.6154C7 19.6336 7 19.6518 7 19.67C7 19.6882 7 19.7063 7 19.7245C7 19.7426 7 19.7608 7 19.7789C7 19.797 7 19.8151 7 19.8332C7 19.8513 7 19.8694 7 19.8874C7 19.9055 7 19.9235 7 19.9415C7 19.9596 7 19.9776 7 19.9956C7 20.0136 7 20.0315 7 20.0495C7 20.0674 7 20.0854 7 20.1033C7 20.1212 7 20.1391 7 20.157C7 20.1749 7 20.1928 7 20.2106C7 20.2285 7 20.2463 7 20.2642C7 20.282 7 20.2998 7 20.3176C7 20.3353 7 20.3531 7 20.3709C7 20.3886 7 20.4063 7 20.4241C7 20.4418 7 20.4595 7 20.4771C7 20.4948 7 20.5125 7 20.5301C7 20.5478 7 20.5654 7 20.583C7 20.6006 7 20.6182 7 20.6358C7 20.6533 7 20.6709 7 20.6884C7 20.7059 7 20.7235 7 20.741C7 20.7584 7 20.7759 7 20.7934C7 20.8108 7 20.8283 7 20.8457C7 20.8631 7 20.8805 7 20.8979C7 20.9153 7 20.9326 7 20.95C7 20.9673 7 20.9846 7 21.0019C7 21.0192 7 21.0365 7 21.0538C7 21.0711 7 21.0883 7 21.1055C7 21.1227 7 21.1399 7 21.1571C7 21.1743 7 21.1915 7 21.2086C7 21.2258 7 21.2429 7 21.26C7 21.2771 7 21.2942 7 21.3112C7 21.3283 7 21.3453 7 21.3624C7 21.3794 7 21.3964 7 21.4134C7 21.4303 7 21.4473 7 21.4642C7 21.4812 7 21.4981 7 21.515C7 21.5319 7 21.5488 7 21.5656C7 21.5825 7 21.5993 7 21.6161C7 21.6329 7 21.6497 7 21.6665C7 21.6832 7 21.7 7 21.7167C7 21.7334 7 21.7501 7 21.7668C7 21.7835 7 21.8002 7 21.8168C7 21.8334 7 21.85 7 21.8666C7 21.8832 7 21.8998 7 21.9163C7 21.9329 7 21.9494 7 21.9659C7 21.9824 7 21.9989 7 22.0154C7 22.0318 7 22.0483 7 22.0647C7 22.0811 7 22.0975 7 22.1138C7 22.1302 7 22.1465 7 22.1629C7 22.1792 7 22.1955 7 22.2117C7 22.228 7 22.2443 7 22.2605C7 22.2767 7 22.2929 7 22.3091C7 22.3253 7 22.3414 7 22.3576C7 22.3737 7 22.3898 7 22.4059C7 22.422 7 22.438 7 22.4541C7 22.4701 7 22.4861 7 22.5021C7 22.5181 7 22.5341 7 22.55C7 22.5659 7 22.5819 7 22.5977C7 22.6136 7 22.6295 7 22.6453C7 22.6612 7 22.677 7 22.6928C7 22.7086 7 22.7243 7 22.7401C7 22.7558 7 22.7715 7 22.7872C7 22.8029 7 22.8186 7 22.8342C7 22.8499 7 22.8655 7 22.8811C7 22.8967 7 22.9122 7 22.9278C7 22.9433 7 22.9588 7 22.9743C7 22.9898 7 23.0052 7 23.0207C7 23.0361 7 23.0515 7 23.0669C7 23.0823 7 23.0976 7 23.113C7 23.1283 7 23.1436 7 23.1589C7 23.1742 7 23.1894 7 23.2046C7 23.2199 7 23.2351 7 23.2502C7 23.2654 7 23.2806 7 23.2957C7 23.3108 7 23.3259 7 23.3409C7 23.356 7 23.371 7 23.3861C7 23.4011 7 23.416 7 23.431C7 23.446 7 23.4609 7 23.4758C7 23.4907 7 23.5056 7 23.5204C7 23.5352 7 23.5501 7 23.5648C7 23.5796 7 23.5944 7 23.6091C7 23.6239 7 23.6386 7 23.6532C7 23.6679 7 23.6826 7 23.6972C7 23.7118 7 23.7264 7 23.741C7 23.7555 7 23.7701 7 23.7846C7 23.7991 7 23.8136 7 23.828C7 23.8425 7 23.8569 7 23.8713C7 23.8857 7 23.9 7 23.9144C7 23.9287 7 23.943 7 23.9573C7 23.9715 7 23.9858 7 24L9 24C9 23.9858 9 23.9715 9 23.9573C9 23.943 9 23.9287 9 23.9144C9 23.9 9 23.8857 9 23.8713C9 23.8569 9 23.8425 9 23.828C9 23.8136 9 23.7991 9 23.7846C9 23.7701 9 23.7555 9 23.741C9 23.7264 9 23.7118 9 23.6972C9 23.6826 9 23.6679 9 23.6532C9 23.6386 9 23.6239 9 23.6091C9 23.5944 9 23.5796 9 23.5648C9 23.5501 9 23.5352 9 23.5204C9 23.5056 9 23.4907 9 23.4758C9 23.4609 9 23.446 9 23.431C9 23.416 9 23.4011 9 23.3861C9 23.371 9 23.356 9 23.3409C9 23.3259 9 23.3108 9 23.2957C9 23.2806 9 23.2654 9 23.2502C9 23.2351 9 23.2199 9 23.2046C9 23.1894 9 23.1742 9 23.1589C9 23.1436 9 23.1283 9 23.113C9 23.0976 9 23.0823 9 23.0669C9 23.0515 9 23.0361 9 23.0207C9 23.0052 9 22.9898 9 22.9743C9 22.9588 9 22.9433 9 22.9278C9 22.9122 9 22.8967 9 22.8811C9 22.8655 9 22.8499 9 22.8342C9 22.8186 9 22.8029 9 22.7872C9 22.7715 9 22.7558 9 22.7401C9 22.7243 9 22.7086 9 22.6928C9 22.677 9 22.6612 9 22.6453C9 22.6295 9 22.6136 9 22.5977C9 22.5819 9 22.5659 9 22.55C9 22.5341 9 22.5181 9 22.5021C9 22.4861 9 22.4701 9 22.4541C9 22.438 9 22.422 9 22.4059C9 22.3898 9 22.3737 9 22.3576C9 22.3414 9 22.3253 9 22.3091C9 22.2929 9 22.2767 9 22.2605C9 22.2443 9 22.228 9 22.2117C9 22.1955 9 22.1792 9 22.1629C9 22.1465 9 22.1302 9 22.1138C9 22.0975 9 22.0811 9 22.0647C9 22.0483 9 22.0318 9 22.0154C9 21.9989 9 21.9824 9 21.9659C9 21.9494 9 21.9329 9 21.9163C9 21.8998 9 21.8832 9 21.8666C9 21.85 9 21.8334 9 21.8168C9 21.8002 9 21.7835 9 21.7668C9 21.7501 9 21.7334 9 21.7167C9 21.7 9 21.6832 9 21.6665C9 21.6497 9 21.6329 9 21.6161C9 21.5993 9 21.5825 9 21.5656C9 21.5488 9 21.5319 9 21.515C9 21.4981 9 21.4812 9 21.4642C9 21.4473 9 21.4303 9 21.4134C9 21.3964 9 21.3794 9 21.3624C9 21.3453 9 21.3283 9 21.3112C9 21.2942 9 21.2771 9 21.26C9 21.2429 9 21.2258 9 21.2086C9 21.1915 9 21.1743 9 21.1571C9 21.1399 9 21.1227 9 21.1055C9 21.0883 9 21.0711 9 21.0538C9 21.0365 9 21.0192 9 21.0019C9 20.9846 9 20.9673 9 20.95C9 20.9326 9 20.9153 9 20.8979C9 20.8805 9 20.8631 9 20.8457C9 20.8283 9 20.8108 9 20.7934C9 20.7759 9 20.7584 9 20.741C9 20.7235 9 20.7059 9 20.6884C9 20.6709 9 20.6533 9 20.6358C9 20.6182 9 20.6006 9 20.583C9 20.5654 9 20.5478 9 20.5301C9 20.5125 9 20.4948 9 20.4771C9 20.4595 9 20.4418 9 20.4241C9 20.4063 9 20.3886 9 20.3709C9 20.3531 9 20.3353 9 20.3176C9 20.2998 9 20.282 9 20.2642C9 20.2463 9 20.2285 9 20.2106C9 20.1928 9 20.1749 9 20.157C9 20.1391 9 20.1212 9 20.1033C9 20.0854 9 20.0674 9 20.0495C9 20.0315 9 20.0136 9 19.9956C9 19.9776 9 19.9596 9 19.9415C9 19.9235 9 19.9055 9 19.8874C9 19.8694 9 19.8513 9 19.8332C9 19.8151 9 19.797 9 19.7789C9 19.7608 9 19.7426 9 19.7245C9 19.7063 9 19.6882 9 19.67C9 19.6518 9 19.6336 9 19.6154C9 19.5972 9 19.5789 9 19.5607C9 19.5425 9 19.5242 9 19.5059C9 19.4876 9 19.4693 9 19.451C9 19.4327 9 19.4144 9 19.3961C9 19.3777 9 19.3594 9 19.341C9 19.3227 9 19.3043 9 19.2859C9 19.2675 9 19.2491 9 19.2307C9 19.2122 9 19.1938 9 19.1753C9 19.1569 9 19.1384 9 19.1199C9 19.1015 9 19.083 9 19.0644C9 19.0459 9 19.0274 9 19.0089C9 18.9903 9 18.9718 9 18.9532C9 18.9347 9 18.9161 9 18.8975C9 18.8789 9 18.8603 9 18.8417C9 18.8231 9 18.8044 9 18.7858C9 18.7671 9 18.7485 9 18.7298C9 18.7111 9 18.6924 9 18.6738C9 18.6551 9 18.6363 9 18.6176C9 18.5989 9 18.5802 9 18.5614C9 18.5427 9 18.5239 9 18.5051C9 18.4864 9 18.4676 9 18.4488C9 18.43 9 18.4112 9 18.3924C9 18.3735 9 18.3547 9 18.3359C9 18.317 9 18.2981 9 18.2793C9 18.2604 9 18.2415 9 18.2226C9 18.2037 9 18.1848 9 18.1659C9 18.147 9 18.1281 9 18.1091C9 18.0902 9 18.0713 9 18.0523C9 18.0333 9 18.0144 9 17.9954C9 17.9764 9 17.9574 9 17.9384C9 17.9194 9 17.9004 9 17.8813C9 17.8623 9 17.8433 9 17.8242C9 17.8052 9 17.7861 9 17.7671C9 17.748 9 17.7289 9 17.7098C9 17.6907 9 17.6716 9 17.6525C9 17.6334 9 17.6143 9 17.5952C9 17.576 9 17.5569 9 17.5378C9 17.5186 9 17.4994 9 17.4803C9 17.4611 9 17.4419 9 17.4227C9 17.4036 9 17.3844 9 17.3652C9 17.346 9 17.3267 9 17.3075C9 17.2883 9 17.2691 9 17.2498C9 17.2306 9 17.2113 9 17.1921C9 17.1728 9 17.1535 9 17.1343C9 17.115 9 17.0957 9 17.0764C9 17.0571 9 17.0378 9 17.0185C9 16.9992 9 16.9799 9 16.9605C9 16.9412 9 16.9219 9 16.9025C9 16.8832 9 16.8638 9 16.8445C9 16.8251 9 16.8057 9 16.7864C9 16.767 9 16.7476 9 16.7282C9 16.7088 9 16.6894 9 16.67C9 16.6506 9 16.6312 9 16.6118C9 16.5924 9 16.5729 9 16.5535C9 16.5341 9 16.5146 9 16.4952C9 16.4757 9 16.4563 9 16.4368C9 16.4173 9 16.3979 9 16.3784C9 16.3589 9 16.3394 9 16.32C9 16.3005 9 16.281 9 16.2615C9 16.242 9 16.2225 9 16.2029C9 16.1834 9 16.1639 9 16.1444C9 16.1249 9 16.1053 9 16.0858C9 16.0663 9 16.0467 9 16.0272C9 16.0076 9 15.9881 9 15.9685C9 15.9489 9 15.9294 9 15.9098C9 15.8902 9 15.8707 9 15.8511C9 15.8315 9 15.8119 9 15.7923C9 15.7727 9 15.7531 9 15.7335C9 15.7139 9 15.6943 9 15.6747C9 15.6551 9 15.6355 9 15.6159C9 15.5962 9 15.5766 9 15.557C9 15.5373 9 15.5177 9 15.4981C9 15.4784 9 15.4588 9 15.4391C9 15.4195 9 15.3998 9 15.3802C9 15.3605 9 15.3409 9 15.3212C9 15.3016 9 15.2819 9 15.2622C9 15.2425 9 15.2229 9 15.2032C9 15.1835 9 15.1638 9 15.1442C9 15.1245 9 15.1048 9 15.0851C9 15.0654 9 15.0457 9 15.026C9 15.0063 9 14.9866 9 14.9669C9 14.9472 9 14.9275 9 14.9078C9 14.8881 9 14.8684 9 14.8487C9 14.829 9 14.8092 9 14.7895C9 14.7698 9 14.7501 9 14.7304C9 14.7106 9 14.6909 9 14.6712C9 14.6515 9 14.6317 9 14.612C9 14.5923 9 14.5725 9 14.5528C9 14.5331 9 14.5133 9 14.4936C9 14.4738 9 14.4541 9 14.4344C9 14.4146 9 14.3949 9 14.3751C9 14.3554 9 14.3356 9 14.3159C9 14.2962 9 14.2764 9 14.2567C9 14.2369 9 14.2172 9 14.1974C9 14.1777 9 14.1579 9 14.1382C9 14.1184 9 14.0987 9 14.0789C9 14.0591 9 14.0394 9 14.0196C9 13.9999 9 13.9801 9 13.9604C9 13.9406 9 13.9209 9 13.9011C9 13.8814 9 13.8616 9 13.8418C9 13.8221 9 13.8023 9 13.7826C9 13.7628 9 13.7431 9 13.7233C9 13.7036 9 13.6838 9 13.6641C9 13.6443 9 13.6246 9 13.6048C9 13.5851 9 13.5653 9 13.5456C9 13.5258 9 13.5061 9 13.4863C9 13.4666 9 13.4468 9 13.4271C9 13.4073 9 13.3876 9 13.3678C9 13.3481 9 13.3284 9 13.3086C9 13.2889 9 13.2691 9 13.2494C9 13.2297 9 13.2099 9 13.1902C9 13.1705 9 13.1507 9 13.131C9 13.1113 9 13.0915 9 13.0718C9 13.0521 9 13.0324 9 13.0126C9 12.9929 9 12.9732 9 12.9535C9 12.9338 9 12.9141 9 12.8944C9 12.8746 9 12.8549 9 12.8352C9 12.8155 9 12.7958 9 12.7761C9 12.7564 9 12.7367 9 12.717C9 12.6973 9 12.6776 9 12.658C9 12.6383 9 12.6186 9 12.5989C9 12.5792 9 12.5595 9 12.5399C9 12.5202 9 12.5005 9 12.4809C9 12.4612 9 12.4415 9 12.4219C9 12.4022 9 12.3826 9 12.3629C9 12.3432 9 12.3236 9 12.304C9 12.2843 9 12.2647 9 12.245C9 12.2254 9 12.2058 9 12.1862C9 12.1665 9 12.1469 9 12.1273C9 12.1077 9 12.0881 9 12.0685C9 12.0488 9 12.0292 9 12.0096C9 11.99 9 11.9705 9 11.9509C9 11.9313 9 11.9117 9 11.8921C9 11.8725 9 11.853 9 11.8334C9 11.8138 9 11.7943 9 11.7747C9 11.7552 9 11.7356 9 11.7161C9 11.6965 9 11.677 9 11.6575C9 11.6379 9 11.6184 9 11.5989C9 11.5794 9 11.5598 9 11.5403C9 11.5208 9 11.5013 9 11.4818C9 11.4623 9 11.4428 9 11.4234C9 11.4039 9 11.3844 9 11.3649C9 11.3455 9 11.326 9 11.3065C9 11.2871 9 11.2676 9 11.2482C9 11.2288 9 11.2093 9 11.1899C9 11.1705 9 11.151 9 11.1316C9 11.1122 9 11.0928 9 11.0734C9 11.054 9 11.0346 9 11.0152C9 10.9959 9 10.9765 9 10.9571C9 10.9377 9 10.9184 9 10.899C9 10.8797 9 10.8603 9 10.841C9 10.8217 9 10.8023 9 10.783C9 10.7637 9 10.7444 9 10.7251C9 10.7058 9 10.6865 9 10.6672C9 10.6479 9 10.6286 9 10.6093C9 10.5901 9 10.5708 9 10.5516C9 10.5323 9 10.5131 9 10.4938C9 10.4746 9 10.4554 9 10.4362C9 10.4169 9 10.3977 9 10.3785C9 10.3593 9 10.3402 9 10.321C9 10.3018 9 10.2826 9 10.2635C9 10.2443 9 10.2252 9 10.206C9 10.1869 9 10.1677 9 10.1486C9 10.1295 9 10.1104 9 10.0913C9 10.0722 9 10.0531 9 10.034C9 10.0149 9 9.99588 9 9.97682C9 9.95776 9 9.93871 9 9.91967C9 9.90063 9 9.88161 9 9.86259C9 9.84357 9 9.82457 9 9.80557C9 9.78658 9 9.76759 9 9.74862C9 9.72965 9 9.71068 9 9.69173C9 9.67278 9 9.65384 9 9.63491C9 9.61598 9 9.59707 9 9.57816C9 9.55926 9 9.54036 9 9.52148C9 9.5026 9 9.48373 9 9.46487C9 9.44601 9 9.42716 9 9.40833C9 9.38949 9 9.37067 9 9.35186C9 9.33305 9 9.31425 9 9.29546C9 9.27668 9 9.2579 9 9.23914C9 9.22038 9 9.20163 9 9.18289C9 9.16416 9 9.14543 9 9.12672C9 9.10801 9 9.08931 9 9.07062C9 9.05194 9 9.03327 9 9.01461C9 8.99595 9 8.9773 9 8.95867C9 8.94003 9 8.92141 9 8.90281C9 8.8842 9 8.86561 9 8.84703C9 8.82845 9 8.80988 9 8.79133C9 8.77278 9 8.75424 9 8.73571C9 8.71719 9 8.69868 9 8.68018C9 8.66168 9 8.6432 9 8.62473C9 8.60626 9 8.58781 9 8.56937C9 8.55093 9 8.5325 9 8.51409C9 8.49568 9 8.47728 9 8.4589C9 8.44052 9 8.42215 9 8.4038C9 8.38544 9 8.36711 9 8.34878C9 8.33046 9 8.31215 9 8.29386C9 8.27557 9 8.25729 9 8.23903C9 8.22076 9 8.20251 9 8.18428C9 8.16605 9 8.14783 9 8.12963C9 8.11143 9 8.09325 9 8.07508C9 8.05691 9 8.03875 9 8.02062C9 8.00248 9 7.98436 9 7.96625C9 7.94814 9 7.93005 9 7.91198C9 7.89391 9 7.87585 9 7.85781C9 7.83977 9 7.82174 9 7.80373C9 7.78572 9 7.76773 9 7.74976C9 7.73178 9 7.71382 9 7.69588C9 7.67794 9 7.66001 9 7.64211C9 7.6242 9 7.60631 9 7.58843C9 7.57056 9 7.5527 9 7.53486C9 7.51703 9 7.4992 9 7.4814C9 7.46359 9 7.44581 9 7.42804C9 7.41027 9 7.39252 9 7.37478C9 7.35705 9 7.33933 9 7.32163C9 7.30394 9 7.28625 9 7.26859C9 7.25093 9 7.23329 9 7.21566C9 7.19803 9 7.18043 9 7.16284C9 7.14525 9 7.12768 9 7.11012C9 7.09257 9 7.07504 9 7.05752C9 7.04001 9 7.02251 9 7.00503C9 6.98755 9 6.9701 9 6.95266C9 6.93522 9 6.91779 9 6.90039C9 6.88299 9 6.86561 9 6.84825C9 6.83088 9 6.81354 9 6.79621C9 6.77889 9 6.76159 9 6.7443C9 6.72702 9 6.70975 9 6.6925C9 6.67526 9 6.65803 9 6.64083C9 6.62362 9 6.60643 9 6.58927C9 6.5721 9 6.55496 9 6.53783C9 6.52071 9 6.5036 9 6.48652C9 6.46943 9 6.45237 9 6.43532C9 6.41828 9 6.40126 9 6.38425C9 6.36725 9 6.35027 9 6.33331C9 6.31635 9 6.29941 9 6.28249C9 6.26557 9 6.24867 9 6.23179C9 6.21492 9 6.19806 9 6.18123C9 6.16439 9 6.14758 9 6.13079C9 6.114 9 6.09723 9 6.08048C9 6.06373 9 6.04701 9 6.0303C9 6.0136 9 5.99692 9 5.98025C9 5.96359 9 5.94696 9 5.93034C9 5.91372 9 5.89713 9 5.88056C9 5.86398 9 5.84743 9 5.83091C9 5.81438 9 5.79787 9 5.78139C9 5.76491 9 5.74845 9 5.73201C9 5.71558 9 5.69916 9 5.68277C9 5.66638 9 5.65001 9 5.63367C9 5.61732 9 5.601 9 5.5847C9 5.5684 9 5.55212 9 5.53587C9 5.51962 9 5.50339 9 5.48719C9 5.47098 9 5.4548 9 5.43864C9 5.42248 9 5.40635 9 5.39024C9 5.37413 9 5.35804 9 5.34198C9 5.32591 9 5.30988 9 5.29386C9 5.27785 9 5.26186 9 5.24589C9 5.22993 9 5.21398 9 5.19807C9 5.18215 9 5.16626 9 5.15039C9 5.13452 9 5.11868 9 5.10286C9 5.08704 9 5.07125 9 5.05548C9 5.03971 9 5.02396 9 5.00825C9 4.99253 9 4.97683 9 4.96117C9 4.9455 9 4.92985 9 4.91424C9 4.89862 9 4.88303 9 4.86746C9 4.85189 9 4.83635 9 4.82084C9 4.80532 9 4.78983 9 4.77437C9 4.7589 9 4.74347 9 4.72805C9 4.71264 9 4.69726 9 4.6819C9 4.66654 9 4.6512 9 4.6359C9 4.62059 9 4.60531 9 4.59006C9 4.5748 9 4.55957 9 4.54437C9 4.52917 9 4.514 9 4.49885C9 4.4837 9 4.46858 9 4.45349C9 4.4384 9 4.42333 9 4.40829C9 4.39325 9 4.37824 9 4.36325C9 4.34827 9 4.33331 9 4.31838C9 4.30345 9 4.28855 9 4.27367C9 4.2588 9 4.24395 9 4.22913C9 4.21431 9 4.19952 9 4.18475C9 4.16999 9 4.15525 9 4.14055C9 4.12584 9 4.11116 9 4.09651C9 4.08185 9 4.06723 9 4.05264C9 4.03804 9 4.02347 9 4.00894C9 3.9944 9 3.97989 9 3.96541C9 3.95093 9 3.93647 9 3.92205C9 3.90763 9 3.89323 9 3.87887C9 3.8645 9 3.85016 9 3.83586C9 3.82155 9 3.80727 9 3.79302C9 3.77877 9 3.76455 9 3.75036C9 3.73617 9 3.72201 9 3.70788C9 3.69375 9 3.67965 9 3.66558C9 3.65151 9 3.63747 9 3.62345C9 3.60944 9 3.59546 9 3.58151C9 3.56756 9 3.55364 9 3.53975C9 3.52585 9 3.51199 9 3.49816C9 3.48433 9 3.47053 9 3.45676C9 3.44299 9 3.42925 9 3.41555C9 3.40184 9 3.38816 9 3.37451C9 3.36087 9 3.34725 9 3.33367C9 3.32008 9 3.30653 9 3.29301C9 3.27948 9 3.26599 9 3.25253C9 3.23907 9 3.22564 9 3.21225C9 3.19885 9 3.18548 9 3.17215C9 3.15882 9 3.14552 9 3.13225C9 3.11897 9 3.10574 9 3.09253C9 3.07932 9 3.06615 9 3.05301C9 3.03986 9 3.02675 9 3.01368C9 3.0006 9 2.98755 9 2.97454C9 2.96153 9 2.94855 9 2.9356C9 2.92265 9 2.90973 9 2.89685C9 2.88397 9 2.87112 9 2.8583C9 2.84549 9 2.8327 9 2.81995C9 2.8072 9 2.79448 9 2.7818C9 2.76911 9 2.75646 9 2.74384C9 2.73122 9 2.71864 9 2.70609C9 2.69354 9 2.68102 9 2.66854C9 2.65605 9 2.6436 9 2.63119C9 2.61877 9 2.60639 9 2.59404C9 2.58169 9 2.56938 9 2.5571C9 2.54482 9 2.53257 9 2.52036C9 2.50815 9 2.49597 9 2.48383C9 2.47168 9 2.45958 9 2.4475C9 2.43543 9 2.42339 9 2.41138C9 2.39938 9 2.38741 9 2.37548C9 2.36354 9 2.35164 9 2.33978C9 2.32791 9 2.31608 9 2.30429C9 2.2925 9 2.28074 9 2.26901C9 2.25729 9 2.2456 9 2.23395C9 2.2223 9 2.21068 9 2.1991C9 2.18752 9 2.17597 9 2.16446C9 2.15295 9 2.14148 9 2.13004C9 2.1186 9 2.1072 9 2.09584C9 2.08447 9 2.07314 9 2.06185C9 2.05056 9 2.0393 9 2.02808C9 2.01686 9 2.00568 9 1.99453C9 1.98339 9 1.97228 9 1.9612C9 1.95013 9 1.93909 9 1.92809C9 1.91709 9 1.90613 9 1.89521C9 1.88428 9 1.87339 9 1.86254C9 1.85169 9 1.84088 9 1.8301C9 1.81933 9 1.80859 9 1.79789C9 1.78719 9 1.77652 9 1.7659C9 1.75527 9 1.74468 9 1.73413C9 1.72358 9 1.71307 9 1.7026C9 1.69212 9 1.68169 9 1.67129C9 1.66089 9 1.65053 9 1.64021C9 1.62989 9 1.61961 9 1.60937C9 1.59912 9 1.58892 9 1.57875C9 1.56858 9 1.55846 9 1.54837C9 1.53828 9 1.52823 9 1.51822C9 1.5082 9 1.49823 9 1.4883C9 1.47837 9 1.46847 9 1.45862C9 1.44876 9 1.43895 9 1.42917C9 1.4194 9 1.40966 9 1.39996C9 1.39027 9 1.38061 9 1.37099C9 1.36138 9 1.3518 9 1.34226C9 1.33272 9 1.32323 9 1.31377C9 1.30431 9 1.29489 9 1.28552C9 1.27614 9 1.2668 9 1.25751C9 1.24821 9 1.23895 9 1.22974C9 1.22052 9 1.21135 9 1.20221C9 1.19308 9 1.18399 9 1.17494C9 1.16588 9 1.15687 9 1.1479C9 1.13893 9 1.13 9 1.12111C9 1.11222 9 1.10338 9 1.09457C9 1.08577 9 1.077 9 1.06828C9 1.05956 9 1.05088 9 1.04224C9 1.0336 9 1.025 9 1.01644C9 1.00789 9 0.999372 9 0.9909C9 0.982428 9 0.973998 9 0.96561C9 0.957222 9 0.948876 9 0.940572C9 0.932268 9 0.924007 9 0.915788C9 0.907569 9 0.899393 9 0.891259C9 0.883125 9 0.875034 9 0.866985C9 0.858937 9 0.850931 9 0.842969C9 0.835006 9 0.827086 9 0.819209C9 0.811332 9 0.803499 9 0.795708C9 0.787918 9 0.780171 9 0.772467C9 0.764763 9 0.757103 9 0.749486C9 0.741869 9 0.734295 9 0.726766C9 0.719236 9 0.71175 9 0.704308C9 0.696866 9 0.689468 9 0.682114C9 0.67476 9 0.667449 9 0.660183C9 0.652917 9 0.645696 9 0.638518C9 0.631341 9 0.624207 9 0.617119C9 0.61003 9 0.602986 9 0.595986C9 0.588987 9 0.582032 9 0.575122C9 0.568212 9 0.561346 9 0.554526C9 0.547706 9 0.54093 9 0.5342C9 0.52747 9 0.520784 9 0.514145C9 0.507505 9 0.50091 9 0.494361C9 0.487812 9 0.481308 9 0.47485C9 0.468391 9 0.461979 9 0.455612C9 0.449245 9 0.442924 9 0.436648C9 0.430373 9 0.424144 9 0.41796C9 0.411777 9 0.40564 9 0.399549C9 0.393458 9 0.387413 9 0.381414C9 0.375416 9 0.369464 9 0.363558C9 0.357652 9 0.351793 9 0.345981C9 0.340168 9 0.334402 9 0.328684C9 0.322965 9 0.317292 9 0.311667C9 0.306042 9 0.300464 9 0.294933C9 0.289402 9 0.283918 9 0.278482C9 0.273045 9 0.267656 9 0.262314C9 0.256972 9 0.251678 9 0.246431C9 0.241184 9 0.235985 9 0.230834C9 0.225682 9 0.220579 9 0.215523C9 0.210467 9 0.20546 9 0.2005C9 0.19554 9 0.190629 9 0.185765C9 0.180902 9 0.176087 9 0.17132C9 0.166553 9 0.161835 9 0.157165C9 0.152495 9 0.147874 9 0.143302C9 0.138729 9 0.134205 9 0.12973C9 0.125255 9 0.120829 9 0.116452C9 0.112075 9 0.107747 9 0.103468C9 0.0991889 9 0.0949592 9 0.0907788C9 0.0865984 9 0.0824673 9 0.0783857C9 0.0743041 9 0.070272 9 0.0662895C9 0.062307 9 0.0583742 9 0.0544912C9 0.0506081 9 0.0467749 9 0.0429916C9 0.0392083 9 0.035475 9 0.0317918C9 0.0281086 9 0.0244755 9 0.0208926C9 0.0173098 9 0.0137772 9 0.0102951C9 0.00681292 9 0.00338119 9 4.37114e-08L7 -4.37114e-08Z" fill="#141414"/>
</svg>
