<svg width="16" height="34" viewBox="0 0 16 34" fill="none" xmlns="http://www.w3.org/2000/svg">
  <path d="M7.29289 33.5438C7.68342 33.9343 8.31658 33.9343 8.70711 33.5438L15.0711 27.1798C15.4616 26.7893 15.4616 26.1561 15.0711 25.7656C14.6805 25.3751 14.0474 25.3751 13.6569 25.7656L8 31.4225L2.34314 25.7656C1.95262 25.3751 1.31946 25.3751 0.928931 25.7656C0.538407 26.1561 0.538407 26.7893 0.928931 27.1798L7.29289 33.5438ZM7 0.83667C7 0.841178 7 0.845754 7 0.850397C7 0.855039 7 0.85975 7 0.864527C7 0.869304 7 0.874148 7 0.879059C7 0.88397 7 0.888948 7 0.893992C7 0.899036 7 0.904147 7 0.909325C7 0.914502 7 0.919746 7 0.925056C7 0.930366 7 0.935742 7 0.941184C7 0.946626 7 0.952134 7 0.957708C7 0.963282 7 0.968922 7 0.974627C7 0.980332 7 0.986103 7 0.991939C7 0.997775 7 1.00368 7 1.00964C7 1.01561 7 1.02164 7 1.02774C7 1.03384 7 1.04 7 1.04622C7 1.05245 7 1.05874 7 1.0651C7 1.07145 7 1.07787 7 1.08436C7 1.09084 7 1.09739 7 1.104C7 1.11062 7 1.11729 7 1.12403C7 1.13077 7 1.13758 7 1.14445C7 1.15132 7 1.15825 7 1.16524C7 1.17224 7 1.1793 7 1.18642C7 1.19354 7 1.20073 7 1.20798C7 1.21523 7 1.22254 7 1.22991C7 1.23729 7 1.24473 7 1.25223C7 1.25973 7 1.26729 7 1.27491C7 1.28254 7 1.29023 7 1.29798C7 1.30573 7 1.31354 7 1.32141C7 1.32929 7 1.33722 7 1.34522C7 1.35322 7 1.36128 7 1.3694C7 1.37752 7 1.38571 7 1.39395C7 1.40219 7 1.4105 7 1.41887C7 1.42723 7 1.43566 7 1.44415C7 1.45264 7 1.46119 7 1.4698C7 1.47841 7 1.48709 7 1.49582C7 1.50455 7 1.51334 7 1.5222C7 1.53105 7 1.53996 7 1.54894C7 1.55791 7 1.56694 7 1.57604C7 1.58513 7 1.59429 7 1.6035C7 1.61271 7 1.62199 7 1.63132C7 1.64065 7 1.65004 7 1.65949C7 1.66895 7 1.67846 7 1.68803C7 1.6976 7 1.70723 7 1.71691C7 1.7266 7 1.73635 7 1.74615C7 1.75596 7 1.76582 7 1.77575C7 1.78567 7 1.79565 7 1.80569C7 1.81573 7 1.82583 7 1.83598C7 1.84614 7 1.85635 7 1.86663C7 1.8769 7 1.88723 7 1.89761C7 1.908 7 1.91845 7 1.92895C7 1.93945 7 1.95001 7 1.96063C7 1.97124 7 1.98192 7 1.99265C7 2.00338 7 2.01417 7 2.02501C7 2.03586 7 2.04676 7 2.05772C7 2.06868 7 2.07969 7 2.09077C7 2.10184 7 2.11297 7 2.12415C7 2.13533 7 2.14657 7 2.15787C7 2.16917 7 2.18052 7 2.19193C7 2.20333 7 2.2148 7 2.22632C7 2.23784 7 2.24941 7 2.26104C7 2.27267 7 2.28436 7 2.2961C7 2.30784 7 2.31964 7 2.33149C7 2.34334 7 2.35524 7 2.3672C7 2.37916 7 2.39118 7 2.40325C7 2.41532 7 2.42744 7 2.43962C7 2.4518 7 2.46403 7 2.47632C7 2.48861 7 2.50095 7 2.51334C7 2.52574 7 2.53819 7 2.55069C7 2.56319 7 2.57575 7 2.58836C7 2.60097 7 2.61363 7 2.62635C7 2.63907 7 2.65184 7 2.66466C7 2.67748 7 2.69036 7 2.70329C7 2.71622 7 2.7292 7 2.74223C7 2.75527 7 2.76835 7 2.78149C7 2.79463 7 2.80782 7 2.82107C7 2.83431 7 2.84761 7 2.86096C7 2.87431 7 2.88771 7 2.90116C7 2.91461 7 2.92811 7 2.94167C7 2.95523 7 2.96883 7 2.98249C7 2.99615 7 3.00986 7 3.02362C7 3.03738 7 3.0512 7 3.06506C7 3.07892 7 3.09284 7 3.1068C7 3.12077 7 3.13478 7 3.14885C7 3.16292 7 3.17703 7 3.1912C7 3.20537 7 3.21958 7 3.23385C7 3.24812 7 3.26244 7 3.27681C7 3.29117 7 3.30559 7 3.32006C7 3.33453 7 3.34905 7 3.36361C7 3.37818 7 3.3928 7 3.40746C7 3.42213 7 3.43684 7 3.45161C7 3.46637 7 3.48118 7 3.49605C7 3.51091 7 3.52582 7 3.54078C7 3.55574 7 3.57075 7 3.5858C7 3.60086 7 3.61597 7 3.63112C7 3.64627 7 3.66148 7 3.67673C7 3.69198 7 3.70727 7 3.72262C7 3.73797 7 3.75336 7 3.7688C7 3.78424 7 3.79973 7 3.81527C7 3.83081 7 3.84639 7 3.86202C7 3.87765 7 3.89333 7 3.90906C7 3.92478 7 3.94055 7 3.95637C7 3.97219 7 3.98806 7 4.00397C7 4.01988 7 4.03584 7 4.05185C7 4.06785 7 4.08391 7 4.1C7 4.1161 7 4.13225 7 4.14844C7 4.16463 7 4.18087 7 4.19715C7 4.21343 7 4.22976 7 4.24613C7 4.26251 7 4.27892 7 4.29539C7 4.31185 7 4.32836 7 4.34492C7 4.36147 7 4.37807 7 4.39472C7 4.41136 7 4.42805 7 4.44479C7 4.46152 7 4.4783 7 4.49513C7 4.51195 7 4.52882 7 4.54573C7 4.56264 7 4.5796 7 4.5966C7 4.6136 7 4.63065 7 4.64774C7 4.66483 7 4.68196 7 4.69914C7 4.71632 7 4.73354 7 4.7508C7 4.76806 7 4.78537 7 4.80272C7 4.82007 7 4.83747 7 4.8549C7 4.87234 7 4.88982 7 4.90735C7 4.92487 7 4.94243 7 4.96004C7 4.97765 7 4.9953 7 5.013C7 5.03069 7 5.04843 7 5.0662C7 5.08398 7 5.1018 7 5.11967C7 5.13753 7 5.15543 7 5.17338C7 5.19133 7 5.20931 7 5.22734C7 5.24537 7 5.26345 7 5.28156C7 5.29967 7 5.31783 7 5.33602C7 5.35422 7 5.37245 7 5.39073C7 5.40901 7 5.42733 7 5.44569C7 5.46405 7 5.48245 7 5.50089C7 5.51933 7 5.53781 7 5.55633C7 5.57485 7 5.59341 7 5.61202C7 5.63062 7 5.64926 7 5.66794C7 5.68662 7 5.70535 7 5.72411C7 5.74287 7 5.76167 7 5.78051C7 5.79935 7 5.81824 7 5.83716C7 5.85608 7 5.87503 7 5.89403C7 5.91303 7 5.93207 7 5.95115C7 5.97022 7 5.98934 7 6.00849C7 6.02764 7 6.04684 7 6.06607C7 6.0853 7 6.10457 7 6.12388C7 6.14319 7 6.16253 7 6.18192C7 6.2013 7 6.22072 7 6.24018C7 6.25964 7 6.27914 7 6.29868C7 6.31821 7 6.33779 7 6.3574C7 6.37701 7 6.39666 7 6.41634C7 6.43603 7 6.45575 7 6.47551C7 6.49527 7 6.51507 7 6.5349C7 6.55473 7 6.5746 7 6.59451C7 6.61442 7 6.63436 7 6.65434C7 6.67432 7 6.69434 7 6.71439C7 6.73444 7 6.75453 7 6.77466C7 6.79478 7 6.81494 7 6.83514C7 6.85533 7 6.87557 7 6.89583C7 6.9161 7 6.93641 7 6.95674C7 6.97708 7 6.99746 7 7.01787C7 7.03828 7 7.05872 7 7.0792C7 7.09968 7 7.12019 7 7.14074C7 7.16129 7 7.18188 7 7.20249C7 7.22311 7 7.24376 7 7.26445C7 7.28514 7 7.30586 7 7.32662C7 7.34737 7 7.36816 7 7.38898C7 7.40981 7 7.43067 7 7.45156C7 7.47245 7 7.49337 7 7.51433C7 7.53529 7 7.55628 7 7.57731C7 7.59833 7 7.61939 7 7.64048C7 7.66157 7 7.6827 7 7.70385C7 7.72501 7 7.7462 7 7.76742C7 7.78865 7 7.8099 7 7.83119C7 7.85248 7 7.8738 7 7.89515C7 7.9165 7 7.93789 7 7.95931C7 7.98072 7 8.00217 7 8.02365C7 8.04513 7 8.06665 7 8.08819C7 8.10973 7 8.13131 7 8.15292C7 8.17452 7 8.19616 7 8.21783C7 8.2395 7 8.2612 7 8.28293C7 8.30467 7 8.32643 7 8.34822C7 8.37002 7 8.39184 7 8.4137C7 8.43555 7 8.45744 7 8.47935C7 8.50127 7 8.52322 7 8.54519C7 8.56717 7 8.58917 7 8.61121C7 8.63325 7 8.65531 7 8.67741C7 8.69951 7 8.72163 7 8.74379C7 8.76594 7 8.78813 7 8.81034C7 8.83256 7 8.8548 7 8.87707C7 8.89935 7 8.92165 7 8.94398C7 8.96631 7 8.98867 7 9.01106C7 9.03345 7 9.05586 7 9.07831C7 9.10075 7 9.12323 7 9.14573C7 9.16823 7 9.19076 7 9.21332C7 9.23588 7 9.25847 7 9.28108C7 9.30369 7 9.32634 7 9.34901C7 9.37168 7 9.39437 7 9.4171C7 9.43982 7 9.46258 7 9.48536C7 9.50814 7 9.53094 7 9.55378C7 9.57661 7 9.59947 7 9.62236C7 9.64525 7 9.66816 7 9.6911C7 9.71405 7 9.73701 7 9.76001C7 9.783 7 9.80602 7 9.82907C7 9.85212 7 9.87519 7 9.89829C7 9.92139 7 9.94451 7 9.96766C7 9.99081 7 10.014 7 10.0372C7 10.0604 7 10.0836 7 10.1069C7 10.1301 7 10.1534 7 10.1767C7 10.2 7 10.2233 7 10.2467C7 10.2701 7 10.2934 7 10.3168C7 10.3402 7 10.3637 7 10.3871C7 10.4106 7 10.434 7 10.4575C7 10.481 7 10.5046 7 10.5281C7 10.5517 7 10.5752 7 10.5988C7 10.6224 7 10.6461 7 10.6697C7 10.6934 7 10.717 7 10.7407C7 10.7644 7 10.7881 7 10.8119C7 10.8356 7 10.8594 7 10.8832C7 10.9069 7 10.9307 7 10.9546C7 10.9784 7 11.0023 7 11.0261C7 11.05 7 11.0739 7 11.0978C7 11.1218 7 11.1457 7 11.1697C7 11.1936 7 11.2176 7 11.2416C7 11.2657 7 11.2897 7 11.3137C7 11.3378 7 11.3619 7 11.386C7 11.4101 7 11.4342 7 11.4583C7 11.4825 7 11.5066 7 11.5308C7 11.555 7 11.5792 7 11.6034C7 11.6277 7 11.6519 7 11.6762C7 11.7004 7 11.7247 7 11.749C7 11.7734 7 11.7977 7 11.822C7 11.8464 7 11.8708 7 11.8951C7 11.9195 7 11.9439 7 11.9684C7 11.9928 7 12.0173 7 12.0417C7 12.0662 7 12.0907 7 12.1152C7 12.1397 7 12.1642 7 12.1888C7 12.2133 7 12.2379 7 12.2625C7 12.2871 7 12.3117 7 12.3363C7 12.3609 7 12.3856 7 12.4102C7 12.4349 7 12.4596 7 12.4843C7 12.509 7 12.5337 7 12.5584C7 12.5832 7 12.6079 7 12.6327C7 12.6575 7 12.6823 7 12.7071C7 12.7319 7 12.7567 7 12.7816C7 12.8064 7 12.8313 7 12.8561C7 12.881 7 12.9059 7 12.9308C7 12.9557 7 12.9807 7 13.0056C7 13.0306 7 13.0555 7 13.0805C7 13.1055 7 13.1305 7 13.1555C7 13.1805 7 13.2056 7 13.2306C7 13.2557 7 13.2807 7 13.3058C7 13.3309 7 13.356 7 13.3811C7 13.4062 7 13.4313 7 13.4565C7 13.4816 7 13.5068 7 13.532C7 13.5572 7 13.5823 7 13.6076C7 13.6328 7 13.658 7 13.6832C7 13.7085 7 13.7337 7 13.759C7 13.7842 7 13.8095 7 13.8348C7 13.8601 7 13.8854 7 13.9108C7 13.9361 7 13.9614 7 13.9868C7 14.0121 7 14.0375 7 14.0629C7 14.0883 7 14.1137 7 14.1391C7 14.1645 7 14.1899 7 14.2154C7 14.2408 7 14.2663 7 14.2917C7 14.3172 7 14.3427 7 14.3682C7 14.3937 7 14.4192 7 14.4447C7 14.4702 7 14.4957 7 14.5213C7 14.5468 7 14.5724 7 14.598C7 14.6235 7 14.6491 7 14.6747C7 14.7003 7 14.7259 7 14.7515C7 14.7772 7 14.8028 7 14.8284C7 14.8541 7 14.8798 7 14.9054C7 14.9311 7 14.9568 7 14.9825C7 15.0082 7 15.0339 7 15.0596C7 15.0853 7 15.111 7 15.1368C7 15.1625 7 15.1882 7 15.214C7 15.2398 7 15.2655 7 15.2913C7 15.3171 7 15.3429 7 15.3687C7 15.3945 7 15.4203 7 15.4461C7 15.472 7 15.4978 7 15.5236C7 15.5495 7 15.5753 7 15.6012C7 15.6271 7 15.653 7 15.6788C7 15.7047 7 15.7306 7 15.7565C7 15.7824 7 15.8083 7 15.8343C7 15.8602 7 15.8861 7 15.9121C7 15.938 7 15.964 7 15.9899C7 16.0159 7 16.0418 7 16.0678C7 16.0938 7 16.1198 7 16.1458C7 16.1718 7 16.1978 7 16.2238C7 16.2498 7 16.2758 7 16.3018C7 16.3279 7 16.3539 7 16.3799C7 16.406 7 16.432 7 16.4581C7 16.4842 7 16.5102 7 16.5363C7 16.5624 7 16.5885 7 16.6145C7 16.6406 7 16.6667 7 16.6928C7 16.7189 7 16.745 7 16.7712C7 16.7973 7 16.8234 7 16.8495C7 16.8757 7 16.9018 7 16.9279C7 16.9541 7 16.9802 7 17.0064C7 17.0325 7 17.0587 7 17.0849C7 17.111 7 17.1372 7 17.1634C7 17.1896 7 17.2158 7 17.2419C7 17.2681 7 17.2943 7 17.3205C7 17.3467 7 17.3729 7 17.3992C7 17.4254 7 17.4516 7 17.4778C7 17.504 7 17.5303 7 17.5565C7 17.5827 7 17.609 7 17.6352C7 17.6614 7 17.6877 7 17.7139C7 17.7402 7 17.7664 7 17.7927C7 17.819 7 17.8452 7 17.8715C7 17.8978 7 17.924 7 17.9503C7 17.9766 7 18.0029 7 18.0291C7 18.0554 7 18.0817 7 18.108C7 18.1343 7 18.1606 7 18.1869C7 18.2132 7 18.2395 7 18.2658C7 18.2921 7 18.3184 7 18.3447C7 18.371 7 18.3973 7 18.4236C7 18.4499 7 18.4762 7 18.5025C7 18.5288 7 18.5552 7 18.5815C7 18.6078 7 18.6341 7 18.6605C7 18.6868 7 18.7131 7 18.7394C7 18.7658 7 18.7921 7 18.8184C7 18.8447 7 18.8711 7 18.8974C7 18.9237 7 18.9501 7 18.9764C7 19.0027 7 19.0291 7 19.0554C7 19.0818 7 19.1081 7 19.1344C7 19.1608 7 19.1871 7 19.2134C7 19.2398 7 19.2661 7 19.2925C7 19.3188 7 19.3451 7 19.3715C7 19.3978 7 19.4242 7 19.4505C7 19.4768 7 19.5032 7 19.5295C7 19.5559 7 19.5822 7 19.6085C7 19.6349 7 19.6612 7 19.6875C7 19.7139 7 19.7402 7 19.7665C7 19.7929 7 19.8192 7 19.8455C7 19.8719 7 19.8982 7 19.9245C7 19.9509 7 19.9772 7 20.0035C7 20.0298 7 20.0562 7 20.0825C7 20.1088 7 20.1351 7 20.1614C7 20.1878 7 20.2141 7 20.2404C7 20.2667 7 20.293 7 20.3193C7 20.3456 7 20.3719 7 20.3982C7 20.4245 7 20.4508 7 20.4771C7 20.5034 7 20.5297 7 20.556C7 20.5823 7 20.6086 7 20.6349C7 20.6612 7 20.6875 7 20.7137C7 20.74 7 20.7663 7 20.7926C7 20.8188 7 20.8451 7 20.8714C7 20.8976 7 20.9239 7 20.9501C7 20.9764 7 21.0026 7 21.0289C7 21.0551 7 21.0814 7 21.1076C7 21.1338 7 21.1601 7 21.1863C7 21.2125 7 21.2387 7 21.265C7 21.2912 7 21.3174 7 21.3436C7 21.3698 7 21.396 7 21.4222C7 21.4484 7 21.4746 7 21.5008C7 21.527 7 21.5531 7 21.5793C7 21.6055 7 21.6316 7 21.6578C7 21.684 7 21.7101 7 21.7363C7 21.7624 7 21.7886 7 21.8147C7 21.8408 7 21.867 7 21.8931C7 21.9192 7 21.9453 7 21.9714C7 21.9975 7 22.0236 7 22.0497C7 22.0758 7 22.1019 7 22.128C7 22.1541 7 22.1802 7 22.2062C7 22.2323 7 22.2583 7 22.2844C7 22.3104 7 22.3365 7 22.3625C7 22.3886 7 22.4146 7 22.4406C7 22.4666 7 22.4926 7 22.5186C7 22.5446 7 22.5706 7 22.5966C7 22.6226 7 22.6486 7 22.6745C7 22.7005 7 22.7265 7 22.7524C7 22.7784 7 22.8043 7 22.8302C7 22.8562 7 22.8821 7 22.908C7 22.9339 7 22.9598 7 22.9857C7 23.0116 7 23.0375 7 23.0634C7 23.0892 7 23.1151 7 23.141C7 23.1668 7 23.1927 7 23.2185C7 23.2443 7 23.2701 7 23.296C7 23.3218 7 23.3476 7 23.3734C7 23.3992 7 23.4249 7 23.4507C7 23.4765 7 23.5022 7 23.528C7 23.5537 7 23.5795 7 23.6052C7 23.6309 7 23.6566 7 23.6823C7 23.708 7 23.7337 7 23.7594C7 23.7851 7 23.8108 7 23.8364C7 23.8621 7 23.8877 7 23.9134C7 23.939 7 23.9646 7 23.9902C7 24.0158 7 24.0414 7 24.067C7 24.0926 7 24.1181 7 24.1437C7 24.1693 7 24.1948 7 24.2203C7 24.2459 7 24.2714 7 24.2969C7 24.3224 7 24.3479 7 24.3734C7 24.3989 7 24.4243 7 24.4498C7 24.4752 7 24.5007 7 24.5261C7 24.5515 7 24.5769 7 24.6023C7 24.6277 7 24.6531 7 24.6785C7 24.7038 7 24.7292 7 24.7545C7 24.7799 7 24.8052 7 24.8305C7 24.8558 7 24.8811 7 24.9064C7 24.9317 7 24.9569 7 24.9822C7 25.0074 7 25.0327 7 25.0579C7 25.0831 7 25.1083 7 25.1335C7 25.1587 7 25.1839 7 25.209C7 25.2342 7 25.2593 7 25.2845C7 25.3096 7 25.3347 7 25.3598C7 25.3849 7 25.41 7 25.435C7 25.4601 7 25.4852 7 25.5102C7 25.5352 7 25.5602 7 25.5852C7 25.6102 7 25.6352 7 25.6602C7 25.6851 7 25.7101 7 25.735C7 25.7599 7 25.7848 7 25.8097C7 25.8346 7 25.8595 7 25.8844C7 25.9092 7 25.9341 7 25.9589C7 25.9837 7 26.0085 7 26.0333C7 26.0581 7 26.0829 7 26.1076C7 26.1324 7 26.1571 7 26.1818C7 26.2066 7 26.2313 7 26.2559C7 26.2806 7 26.3053 7 26.3299C7 26.3546 7 26.3792 7 26.4038C7 26.4284 7 26.453 7 26.4775C7 26.5021 7 26.5266 7 26.5512C7 26.5757 7 26.6002 7 26.6247C7 26.6492 7 26.6737 7 26.6981C7 26.7226 7 26.747 7 26.7714C7 26.7958 7 26.8202 7 26.8446C7 26.8689 7 26.8933 7 26.9176C7 26.9419 7 26.9662 7 26.9905C7 27.0148 7 27.0391 7 27.0633C7 27.0876 7 27.1118 7 27.136C7 27.1602 7 27.1844 7 27.2085C7 27.2327 7 27.2568 7 27.281C7 27.3051 7 27.3292 7 27.3532C7 27.3773 7 27.4014 7 27.4254C7 27.4494 7 27.4734 7 27.4974C7 27.5214 7 27.5454 7 27.5693C7 27.5933 7 27.6172 7 27.6411C7 27.665 7 27.6888 7 27.7127C7 27.7366 7 27.7604 7 27.7842C7 27.808 7 27.8318 7 27.8555C7 27.8793 7 27.903 7 27.9267C7 27.9505 7 27.9742 7 27.9978C7 28.0215 7 28.0451 7 28.0687C7 28.0924 7 28.116 7 28.1395C7 28.1631 7 28.1866 7 28.2102C7 28.2337 7 28.2572 7 28.2807C7 28.3041 7 28.3276 7 28.351C7 28.3744 7 28.3978 7 28.4212C7 28.4446 7 28.4679 7 28.4913C7 28.5146 7 28.5379 7 28.5612C7 28.5845 7 28.6077 7 28.6309C7 28.6542 7 28.6773 7 28.7005C7 28.7237 7 28.7468 7 28.77C7 28.7931 7 28.8162 7 28.8393C7 28.8623 7 28.8854 7 28.9084C7 28.9314 7 28.9544 7 28.9774C7 29.0003 7 29.0233 7 29.0462C7 29.0691 7 29.092 7 29.1148C7 29.1377 7 29.1605 7 29.1833C7 29.2061 7 29.2289 7 29.2517C7 29.2744 7 29.2971 7 29.3198C7 29.3425 7 29.3652 7 29.3878C7 29.4105 7 29.4331 7 29.4557C7 29.4782 7 29.5008 7 29.5233C7 29.5458 7 29.5683 7 29.5908C7 29.6133 7 29.6357 7 29.6581C7 29.6806 7 29.7029 7 29.7253C7 29.7477 7 29.77 7 29.7923C7 29.8146 7 29.8369 7 29.8591C7 29.8813 7 29.9035 7 29.9257C7 29.9479 7 29.9701 7 29.9922C7 30.0143 7 30.0364 7 30.0585C7 30.0805 7 30.1026 7 30.1246C7 30.1466 7 30.1685 7 30.1905C7 30.2124 7 30.2343 7 30.2562C7 30.2781 7 30.3 7 30.3218C7 30.3436 7 30.3654 7 30.3871C7 30.4089 7 30.4306 7 30.4523C7 30.474 7 30.4957 7 30.5173C7 30.539 7 30.5606 7 30.5821C7 30.6037 7 30.6253 7 30.6468C7 30.6683 7 30.6897 7 30.7112C7 30.7326 7 30.754 7 30.7754C7 30.7968 7 30.8182 7 30.8395C7 30.8608 7 30.8821 7 30.9033C7 30.9246 7 30.9458 7 30.967C7 30.9882 7 31.0093 7 31.0304C7 31.0516 7 31.0727 7 31.0937C7 31.1148 7 31.1358 7 31.1568C7 31.1778 7 31.1987 7 31.2196C7 31.2406 7 31.2614 7 31.2823C7 31.3032 7 31.324 7 31.3448C7 31.3655 7 31.3863 7 31.407C7 31.4277 7 31.4484 7 31.4691C7 31.4897 7 31.5103 7 31.5309C7 31.5515 7 31.572 7 31.5925C7 31.6131 7 31.6335 7 31.654C7 31.6744 7 31.6948 7 31.7152C7 31.7356 7 31.7559 7 31.7762C7 31.7965 7 31.8168 7 31.837C7 31.8572 7 31.8774 7 31.8976C7 31.9177 7 31.9378 7 31.9579C7 31.978 7 31.9981 7 32.0181C7 32.0381 7 32.0581 7 32.078C7 32.0979 7 32.1178 7 32.1377C7 32.1576 7 32.1774 7 32.1972C7 32.217 7 32.2367 7 32.2565C7 32.2762 7 32.2959 7 32.3155C7 32.3352 7 32.3548 7 32.3743C7 32.3939 7 32.4134 7 32.4329C7 32.4524 7 32.4719 7 32.4913C7 32.5107 7 32.5301 7 32.5494C7 32.5688 7 32.5881 7 32.6073C7 32.6266 7 32.6458 7 32.665C7 32.6842 7 32.7034 7 32.7225C7 32.7416 7 32.7607 7 32.7797C7 32.7987 7 32.8177 7 32.8367L9 32.8367C9 32.8177 9 32.7987 9 32.7797C9 32.7607 9 32.7416 9 32.7225C9 32.7034 9 32.6842 9 32.665C9 32.6458 9 32.6266 9 32.6073C9 32.5881 9 32.5688 9 32.5494C9 32.5301 9 32.5107 9 32.4913C9 32.4719 9 32.4524 9 32.4329C9 32.4134 9 32.3939 9 32.3743C9 32.3548 9 32.3352 9 32.3155C9 32.2959 9 32.2762 9 32.2565C9 32.2367 9 32.217 9 32.1972C9 32.1774 9 32.1576 9 32.1377C9 32.1178 9 32.0979 9 32.078C9 32.0581 9 32.0381 9 32.0181C9 31.9981 9 31.978 9 31.9579C9 31.9378 9 31.9177 9 31.8976C9 31.8774 9 31.8572 9 31.837C9 31.8168 9 31.7965 9 31.7762C9 31.7559 9 31.7356 9 31.7152C9 31.6948 9 31.6744 9 31.654C9 31.6335 9 31.6131 9 31.5925C9 31.572 9 31.5515 9 31.5309C9 31.5103 9 31.4897 9 31.4691C9 31.4484 9 31.4277 9 31.407C9 31.3863 9 31.3655 9 31.3448C9 31.324 9 31.3032 9 31.2823C9 31.2614 9 31.2406 9 31.2196C9 31.1987 9 31.1778 9 31.1568C9 31.1358 9 31.1148 9 31.0937C9 31.0727 9 31.0516 9 31.0304C9 31.0093 9 30.9882 9 30.967C9 30.9458 9 30.9246 9 30.9033C9 30.8821 9 30.8608 9 30.8395C9 30.8182 9 30.7968 9 30.7754C9 30.754 9 30.7326 9 30.7112C9 30.6897 9 30.6683 9 30.6468C9 30.6253 9 30.6037 9 30.5821C9 30.5606 9 30.539 9 30.5173C9 30.4957 9 30.474 9 30.4523C9 30.4306 9 30.4089 9 30.3871C9 30.3654 9 30.3436 9 30.3218C9 30.3 9 30.2781 9 30.2562C9 30.2343 9 30.2124 9 30.1905C9 30.1685 9 30.1466 9 30.1246C9 30.1026 9 30.0805 9 30.0585C9 30.0364 9 30.0143 9 29.9922C9 29.9701 9 29.9479 9 29.9257C9 29.9035 9 29.8813 9 29.8591C9 29.8369 9 29.8146 9 29.7923C9 29.77 9 29.7477 9 29.7253C9 29.7029 9 29.6806 9 29.6581C9 29.6357 9 29.6133 9 29.5908C9 29.5683 9 29.5458 9 29.5233C9 29.5008 9 29.4782 9 29.4557C9 29.4331 9 29.4105 9 29.3878C9 29.3652 9 29.3425 9 29.3198C9 29.2971 9 29.2744 9 29.2517C9 29.2289 9 29.2061 9 29.1833C9 29.1605 9 29.1377 9 29.1148C9 29.092 9 29.0691 9 29.0462C9 29.0233 9 29.0003 9 28.9774C9 28.9544 9 28.9314 9 28.9084C9 28.8854 9 28.8623 9 28.8393C9 28.8162 9 28.7931 9 28.77C9 28.7468 9 28.7237 9 28.7005C9 28.6774 9 28.6542 9 28.6309C9 28.6077 9 28.5845 9 28.5612C9 28.5379 9 28.5146 9 28.4913C9 28.4679 9 28.4446 9 28.4212C9 28.3978 9 28.3744 9 28.351C9 28.3276 9 28.3041 9 28.2807C9 28.2572 9 28.2337 9 28.2102C9 28.1866 9 28.1631 9 28.1395C9 28.116 9 28.0924 9 28.0687C9 28.0451 9 28.0215 9 27.9978C9 27.9742 9 27.9505 9 27.9267C9 27.903 9 27.8793 9 27.8555C9 27.8318 9 27.808 9 27.7842C9 27.7604 9 27.7366 9 27.7127C9 27.6888 9 27.665 9 27.6411C9 27.6172 9 27.5933 9 27.5693C9 27.5454 9 27.5214 9 27.4974C9 27.4734 9 27.4494 9 27.4254C9 27.4014 9 27.3773 9 27.3532C9 27.3292 9 27.3051 9 27.281C9 27.2568 9 27.2327 9 27.2085C9 27.1844 9 27.1602 9 27.136C9 27.1118 9 27.0876 9 27.0633C9 27.0391 9 27.0148 9 26.9905C9 26.9662 9 26.9419 9 26.9176C9 26.8933 9 26.8689 9 26.8446C9 26.8202 9 26.7958 9 26.7714C9 26.747 9 26.7226 9 26.6981C9 26.6737 9 26.6492 9 26.6247C9 26.6002 9 26.5757 9 26.5512C9 26.5266 9 26.5021 9 26.4775C9 26.453 9 26.4284 9 26.4038C9 26.3792 9 26.3546 9 26.3299C9 26.3053 9 26.2806 9 26.2559C9 26.2313 9 26.2066 9 26.1818C9 26.1571 9 26.1324 9 26.1076C9 26.0829 9 26.0581 9 26.0333C9 26.0085 9 25.9837 9 25.9589C9 25.9341 9 25.9092 9 25.8844C9 25.8595 9 25.8346 9 25.8097C9 25.7848 9 25.7599 9 25.735C9 25.7101 9 25.6851 9 25.6602C9 25.6352 9 25.6102 9 25.5852C9 25.5602 9 25.5352 9 25.5102C9 25.4852 9 25.4601 9 25.435C9 25.41 9 25.3849 9 25.3598C9 25.3347 9 25.3096 9 25.2845C9 25.2593 9 25.2342 9 25.209C9 25.1839 9 25.1587 9 25.1335C9 25.1083 9 25.0831 9 25.0579C9 25.0327 9 25.0074 9 24.9822C9 24.9569 9 24.9317 9 24.9064C9 24.8811 9 24.8558 9 24.8305C9 24.8052 9 24.7799 9 24.7545C9 24.7292 9 24.7038 9 24.6785C9 24.6531 9 24.6277 9 24.6023C9 24.5769 9 24.5515 9 24.5261C9 24.5007 9 24.4752 9 24.4498C9 24.4243 9 24.3989 9 24.3734C9 24.3479 9 24.3224 9 24.2969C9 24.2714 9 24.2459 9 24.2203C9 24.1948 9 24.1693 9 24.1437C9 24.1181 9 24.0926 9 24.067C9 24.0414 9 24.0158 9 23.9902C9 23.9646 9 23.939 9 23.9134C9 23.8877 9 23.8621 9 23.8364C9 23.8108 9 23.7851 9 23.7594C9 23.7337 9 23.708 9 23.6823C9 23.6566 9 23.6309 9 23.6052C9 23.5795 9 23.5537 9 23.528C9 23.5022 9 23.4765 9 23.4507C9 23.4249 9 23.3992 9 23.3734C9 23.3476 9 23.3218 9 23.296C9 23.2701 9 23.2443 9 23.2185C9 23.1927 9 23.1668 9 23.141C9 23.1151 9 23.0892 9 23.0634C9 23.0375 9 23.0116 9 22.9857C9 22.9598 9 22.9339 9 22.908C9 22.8821 9 22.8562 9 22.8302C9 22.8043 9 22.7784 9 22.7524C9 22.7265 9 22.7005 9 22.6745C9 22.6486 9 22.6226 9 22.5966C9 22.5706 9 22.5446 9 22.5186C9 22.4926 9 22.4666 9 22.4406C9 22.4146 9 22.3886 9 22.3625C9 22.3365 9 22.3104 9 22.2844C9 22.2583 9 22.2323 9 22.2062C9 22.1802 9 22.1541 9 22.128C9 22.1019 9 22.0758 9 22.0497C9 22.0236 9 21.9975 9 21.9714C9 21.9453 9 21.9192 9 21.8931C9 21.867 9 21.8408 9 21.8147C9 21.7886 9 21.7624 9 21.7363C9 21.7101 9 21.684 9 21.6578C9 21.6316 9 21.6055 9 21.5793C9 21.5531 9 21.527 9 21.5008C9 21.4746 9 21.4484 9 21.4222C9 21.396 9 21.3698 9 21.3436C9 21.3174 9 21.2912 9 21.265C9 21.2387 9 21.2125 9 21.1863C9 21.1601 9 21.1338 9 21.1076C9 21.0814 9 21.0551 9 21.0289C9 21.0026 9 20.9764 9 20.9501C9 20.9239 9 20.8976 9 20.8714C9 20.8451 9 20.8188 9 20.7926C9 20.7663 9 20.74 9 20.7137C9 20.6875 9 20.6612 9 20.6349C9 20.6086 9 20.5823 9 20.556C9 20.5297 9 20.5034 9 20.4771C9 20.4508 9 20.4245 9 20.3982C9 20.3719 9 20.3456 9 20.3193C9 20.293 9 20.2667 9 20.2404C9 20.2141 9 20.1878 9 20.1614C9 20.1351 9 20.1088 9 20.0825C9 20.0562 9 20.0298 9 20.0035C9 19.9772 9 19.9509 9 19.9245C9 19.8982 9 19.8719 9 19.8455C9 19.8192 9 19.7929 9 19.7665C9 19.7402 9 19.7139 9 19.6875C9 19.6612 9 19.6349 9 19.6085C9 19.5822 9 19.5559 9 19.5295C9 19.5032 9 19.4768 9 19.4505C9 19.4242 9 19.3978 9 19.3715C9 19.3451 9 19.3188 9 19.2925C9 19.2661 9 19.2398 9 19.2134C9 19.1871 9 19.1608 9 19.1344C9 19.1081 9 19.0818 9 19.0554C9 19.0291 9 19.0027 9 18.9764C9 18.9501 9 18.9237 9 18.8974C9 18.8711 9 18.8447 9 18.8184C9 18.7921 9 18.7658 9 18.7394C9 18.7131 9 18.6868 9 18.6605C9 18.6341 9 18.6078 9 18.5815C9 18.5552 9 18.5288 9 18.5025C9 18.4762 9 18.4499 9 18.4236C9 18.3973 9 18.371 9 18.3447C9 18.3184 9 18.2921 9 18.2658C9 18.2395 9 18.2132 9 18.1869C9 18.1606 9 18.1343 9 18.108C9 18.0817 9 18.0554 9 18.0291C9 18.0029 9 17.9766 9 17.9503C9 17.924 9 17.8978 9 17.8715C9 17.8452 9 17.819 9 17.7927C9 17.7664 9 17.7402 9 17.7139C9 17.6877 9 17.6614 9 17.6352C9 17.609 9 17.5827 9 17.5565C9 17.5303 9 17.504 9 17.4778C9 17.4516 9 17.4254 9 17.3992C9 17.3729 9 17.3467 9 17.3205C9 17.2943 9 17.2681 9 17.2419C9 17.2158 9 17.1896 9 17.1634C9 17.1372 9 17.111 9 17.0849C9 17.0587 9 17.0325 9 17.0064C9 16.9802 9 16.9541 9 16.9279C9 16.9018 9 16.8757 9 16.8495C9 16.8234 9 16.7973 9 16.7712C9 16.745 9 16.7189 9 16.6928C9 16.6667 9 16.6406 9 16.6145C9 16.5885 9 16.5624 9 16.5363C9 16.5102 9 16.4842 9 16.4581C9 16.432 9 16.406 9 16.3799C9 16.3539 9 16.3279 9 16.3018C9 16.2758 9 16.2498 9 16.2238C9 16.1978 9 16.1718 9 16.1458C9 16.1198 9 16.0938 9 16.0678C9 16.0418 9 16.0159 9 15.9899C9 15.964 9 15.938 9 15.9121C9 15.8861 9 15.8602 9 15.8343C9 15.8083 9 15.7824 9 15.7565C9 15.7306 9 15.7047 9 15.6788C9 15.653 9 15.6271 9 15.6012C9 15.5753 9 15.5495 9 15.5236C9 15.4978 9 15.472 9 15.4461C9 15.4203 9 15.3945 9 15.3687C9 15.3429 9 15.3171 9 15.2913C9 15.2655 9 15.2398 9 15.214C9 15.1882 9 15.1625 9 15.1368C9 15.111 9 15.0853 9 15.0596C9 15.0339 9 15.0082 9 14.9825C9 14.9568 9 14.9311 9 14.9054C9 14.8798 9 14.8541 9 14.8284C9 14.8028 9 14.7772 9 14.7515C9 14.7259 9 14.7003 9 14.6747C9 14.6491 9 14.6235 9 14.598C9 14.5724 9 14.5468 9 14.5213C9 14.4957 9 14.4702 9 14.4447C9 14.4192 9 14.3937 9 14.3682C9 14.3427 9 14.3172 9 14.2917C9 14.2663 9 14.2408 9 14.2154C9 14.1899 9 14.1645 9 14.1391C9 14.1137 9 14.0883 9 14.0629C9 14.0375 9 14.0121 9 13.9868C9 13.9614 9 13.9361 9 13.9108C9 13.8854 9 13.8601 9 13.8348C9 13.8095 9 13.7842 9 13.759C9 13.7337 9 13.7085 9 13.6832C9 13.658 9 13.6328 9 13.6076C9 13.5823 9 13.5572 9 13.532C9 13.5068 9 13.4816 9 13.4565C9 13.4313 9 13.4062 9 13.3811C9 13.356 9 13.3309 9 13.3058C9 13.2807 9 13.2557 9 13.2306C9 13.2056 9 13.1805 9 13.1555C9 13.1305 9 13.1055 9 13.0805C9 13.0555 9 13.0306 9 13.0056C9 12.9807 9 12.9557 9 12.9308C9 12.9059 9 12.881 9 12.8561C9 12.8313 9 12.8064 9 12.7816C9 12.7567 9 12.7319 9 12.7071C9 12.6823 9 12.6575 9 12.6327C9 12.6079 9 12.5832 9 12.5584C9 12.5337 9 12.509 9 12.4843C9 12.4596 9 12.4349 9 12.4102C9 12.3856 9 12.3609 9 12.3363C9 12.3117 9 12.2871 9 12.2625C9 12.2379 9 12.2133 9 12.1888C9 12.1642 9 12.1397 9 12.1152C9 12.0907 9 12.0662 9 12.0417C9 12.0173 9 11.9928 9 11.9684C9 11.9439 9 11.9195 9 11.8951C9 11.8708 9 11.8464 9 11.822C9 11.7977 9 11.7734 9 11.749C9 11.7247 9 11.7004 9 11.6762C9 11.6519 9 11.6277 9 11.6034C9 11.5792 9 11.555 9 11.5308C9 11.5066 9 11.4825 9 11.4583C9 11.4342 9 11.4101 9 11.386C9 11.3619 9 11.3378 9 11.3137C9 11.2897 9 11.2657 9 11.2416C9 11.2176 9 11.1936 9 11.1697C9 11.1457 9 11.1218 9 11.0978C9 11.0739 9 11.05 9 11.0261C9 11.0023 9 10.9784 9 10.9546C9 10.9307 9 10.9069 9 10.8832C9 10.8594 9 10.8356 9 10.8119C9 10.7881 9 10.7644 9 10.7407C9 10.717 9 10.6934 9 10.6697C9 10.6461 9 10.6224 9 10.5988C9 10.5752 9 10.5517 9 10.5281C9 10.5046 9 10.481 9 10.4575C9 10.434 9 10.4106 9 10.3871C9 10.3637 9 10.3402 9 10.3168C9 10.2934 9 10.2701 9 10.2467C9 10.2233 9 10.2 9 10.1767C9 10.1534 9 10.1301 9 10.1069C9 10.0836 9 10.0604 9 10.0372C9 10.014 9 9.99081 9 9.96766C9 9.94451 9 9.92139 9 9.89829C9 9.87519 9 9.85212 9 9.82907C9 9.80602 9 9.783 9 9.76001C9 9.73701 9 9.71405 9 9.6911C9 9.66816 9 9.64525 9 9.62236C9 9.59947 9 9.57661 9 9.55378C9 9.53094 9 9.50814 9 9.48536C9 9.46258 9 9.43982 9 9.4171C9 9.39437 9 9.37168 9 9.34901C9 9.32634 9 9.30369 9 9.28108C9 9.25847 9 9.23588 9 9.21332C9 9.19076 9 9.16823 9 9.14573C9 9.12323 9 9.10075 9 9.07831C9 9.05586 9 9.03345 9 9.01106C9 8.98867 9 8.96631 9 8.94398C9 8.92165 9 8.89935 9 8.87707C9 8.8548 9 8.83256 9 8.81034C9 8.78813 9 8.76594 9 8.74379C9 8.72163 9 8.69951 9 8.67741C9 8.65531 9 8.63325 9 8.61121C9 8.58917 9 8.56717 9 8.54519C9 8.52322 9 8.50127 9 8.47935C9 8.45744 9 8.43555 9 8.4137C9 8.39184 9 8.37002 9 8.34822C9 8.32643 9 8.30467 9 8.28293C9 8.2612 9 8.2395 9 8.21783C9 8.19616 9 8.17452 9 8.15292C9 8.13131 9 8.10973 9 8.08819C9 8.06665 9 8.04513 9 8.02365C9 8.00217 9 7.98072 9 7.95931C9 7.93789 9 7.9165 9 7.89515C9 7.8738 9 7.85248 9 7.83119C9 7.8099 9 7.78865 9 7.76742C9 7.7462 9 7.72501 9 7.70385C9 7.6827 9 7.66157 9 7.64048C9 7.61939 9 7.59833 9 7.57731C9 7.55628 9 7.53529 9 7.51433C9 7.49337 9 7.47245 9 7.45156C9 7.43067 9 7.40981 9 7.38898C9 7.36816 9 7.34737 9 7.32662C9 7.30586 9 7.28514 9 7.26445C9 7.24376 9 7.22311 9 7.20249C9 7.18188 9 7.16129 9 7.14074C9 7.12019 9 7.09968 9 7.0792C9 7.05872 9 7.03828 9 7.01787C9 6.99746 9 6.97708 9 6.95674C9 6.93641 9 6.9161 9 6.89583C9 6.87557 9 6.85533 9 6.83514C9 6.81494 9 6.79478 9 6.77466C9 6.75453 9 6.73444 9 6.71439C9 6.69434 9 6.67432 9 6.65434C9 6.63436 9 6.61442 9 6.59451C9 6.5746 9 6.55473 9 6.5349C9 6.51507 9 6.49527 9 6.47551C9 6.45575 9 6.43603 9 6.41634C9 6.39666 9 6.37701 9 6.3574C9 6.33779 9 6.31821 9 6.29868C9 6.27914 9 6.25964 9 6.24018C9 6.22072 9 6.2013 9 6.18192C9 6.16253 9 6.14319 9 6.12388C9 6.10457 9 6.0853 9 6.06607C9 6.04684 9 6.02765 9 6.00849C9 5.98934 9 5.97022 9 5.95115C9 5.93207 9 5.91303 9 5.89403C9 5.87503 9 5.85608 9 5.83716C9 5.81824 9 5.79935 9 5.78051C9 5.76167 9 5.74287 9 5.72411C9 5.70535 9 5.68662 9 5.66794C9 5.64926 9 5.63062 9 5.61202C9 5.59341 9 5.57485 9 5.55633C9 5.53781 9 5.51933 9 5.50089C9 5.48245 9 5.46405 9 5.44569C9 5.42733 9 5.40901 9 5.39073C9 5.37245 9 5.35422 9 5.33602C9 5.31783 9 5.29967 9 5.28156C9 5.26345 9 5.24537 9 5.22734C9 5.20931 9 5.19133 9 5.17338C9 5.15543 9 5.13753 9 5.11967C9 5.1018 9 5.08398 9 5.0662C9 5.04843 9 5.03069 9 5.013C9 4.9953 9 4.97765 9 4.96004C9 4.94243 9 4.92487 9 4.90735C9 4.88982 9 4.87234 9 4.8549C9 4.83747 9 4.82007 9 4.80272C9 4.78537 9 4.76806 9 4.7508C9 4.73354 9 4.71632 9 4.69914C9 4.68196 9 4.66483 9 4.64774C9 4.63065 9 4.6136 9 4.5966C9 4.5796 9 4.56265 9 4.54573C9 4.52882 9 4.51195 9 4.49513C9 4.4783 9 4.46152 9 4.44479C9 4.42805 9 4.41136 9 4.39472C9 4.37807 9 4.36147 9 4.34492C9 4.32836 9 4.31185 9 4.29539C9 4.27892 9 4.26251 9 4.24613C9 4.22976 9 4.21343 9 4.19715C9 4.18087 9 4.16463 9 4.14844C9 4.13225 9 4.1161 9 4.10001C9 4.08391 9 4.06785 9 4.05185C9 4.03584 9 4.01988 9 4.00397C9 3.98806 9 3.97219 9 3.95637C9 3.94055 9 3.92478 9 3.90906C9 3.89333 9 3.87765 9 3.86202C9 3.84639 9 3.83081 9 3.81527C9 3.79973 9 3.78424 9 3.7688C9 3.75336 9 3.73797 9 3.72262C9 3.70727 9 3.69198 9 3.67673C9 3.66148 9 3.64627 9 3.63112C9 3.61597 9 3.60086 9 3.5858C9 3.57075 9 3.55574 9 3.54078C9 3.52582 9 3.51091 9 3.49605C9 3.48118 9 3.46637 9 3.45161C9 3.43684 9 3.42213 9 3.40746C9 3.3928 9 3.37818 9 3.36361C9 3.34905 9 3.33453 9 3.32006C9 3.30559 9 3.29117 9 3.27681C9 3.26244 9 3.24812 9 3.23385C9 3.21959 9 3.20537 9 3.1912C9 3.17703 9 3.16292 9 3.14885C9 3.13478 9 3.12077 9 3.1068C9 3.09284 9 3.07892 9 3.06506C9 3.0512 9 3.03738 9 3.02362C9 3.00986 9 2.99615 9 2.98249C9 2.96883 9 2.95523 9 2.94167C9 2.92811 9 2.91461 9 2.90116C9 2.88771 9 2.87431 9 2.86096C9 2.84761 9 2.83431 9 2.82107C9 2.80782 9 2.79463 9 2.78149C9 2.76835 9 2.75527 9 2.74223C9 2.7292 9 2.71622 9 2.70329C9 2.69036 9 2.67748 9 2.66466C9 2.65184 9 2.63907 9 2.62635C9 2.61363 9 2.60097 9 2.58836C9 2.57575 9 2.56319 9 2.55069C9 2.53819 9 2.52574 9 2.51334C9 2.50095 9 2.48861 9 2.47632C9 2.46403 9 2.4518 9 2.43962C9 2.42744 9 2.41532 9 2.40325C9 2.39118 9 2.37916 9 2.3672C9 2.35524 9 2.34334 9 2.33149C9 2.31964 9 2.30784 9 2.2961C9 2.28436 9 2.27267 9 2.26104C9 2.24941 9 2.23784 9 2.22632C9 2.2148 9 2.20333 9 2.19193C9 2.18052 9 2.16917 9 2.15787C9 2.14657 9 2.13533 9 2.12415C9 2.11297 9 2.10184 9 2.09077C9 2.07969 9 2.06868 9 2.05772C9 2.04676 9 2.03586 9 2.02502C9 2.01417 9 2.00338 9 1.99265C9 1.98192 9 1.97124 9 1.96063C9 1.95001 9 1.93945 9 1.92895C9 1.91845 9 1.908 9 1.89761C9 1.88723 9 1.8769 9 1.86663C9 1.85635 9 1.84614 9 1.83598C9 1.82583 9 1.81573 9 1.80569C9 1.79565 9 1.78567 9 1.77575C9 1.76582 9 1.75596 9 1.74615C9 1.73635 9 1.7266 9 1.71691C9 1.70723 9 1.6976 9 1.68803C9 1.67846 9 1.66895 9 1.65949C9 1.65004 9 1.64065 9 1.63132C9 1.62199 9 1.61271 9 1.6035C9 1.59429 9 1.58513 9 1.57604C9 1.56694 9 1.55791 9 1.54894C9 1.53996 9 1.53105 9 1.5222C9 1.51334 9 1.50455 9 1.49582C9 1.48709 9 1.47841 9 1.4698C9 1.46119 9 1.45264 9 1.44415C9 1.43566 9 1.42723 9 1.41887C9 1.4105 9 1.40219 9 1.39395C9 1.38571 9 1.37752 9 1.3694C9 1.36128 9 1.35322 9 1.34522C9 1.33722 9 1.32929 9 1.32141C9 1.31354 9 1.30573 9 1.29798C9 1.29023 9 1.28254 9 1.27491C9 1.26729 9 1.25973 9 1.25223C9 1.24473 9 1.23729 9 1.22991C9 1.22254 9 1.21523 9 1.20798C9 1.20073 9 1.19354 9 1.18642C9 1.1793 9 1.17224 9 1.16524C9 1.15825 9 1.15132 9 1.14445C9 1.13758 9 1.13077 9 1.12403C9 1.11729 9 1.11062 9 1.104C9 1.09739 9 1.09084 9 1.08436C9 1.07787 9 1.07145 9 1.0651C9 1.05874 9 1.05245 9 1.04622C9 1.04 9 1.03384 9 1.02774C9 1.02164 9 1.01561 9 1.00964C9 1.00368 9 0.997775 9 0.991939C9 0.986103 9 0.980332 9 0.974627C9 0.968922 9 0.963282 9 0.957708C9 0.952134 9 0.946626 9 0.941184C9 0.935742 9 0.930366 9 0.925056C9 0.919746 9 0.914502 9 0.909325C9 0.904147 9 0.899036 9 0.893992C9 0.888948 9 0.88397 9 0.879059C9 0.874148 9 0.869304 9 0.864527C9 0.85975 9 0.85504 9 0.850397C9 0.845754 9 0.841178 9 0.83667L7 0.83667Z" fill="white"/>
</svg>
