<svg width="154" height="29" viewBox="0 0 154 29" fill="none" xmlns="http://www.w3.org/2000/svg">
  <g clip-path="url(#clip0_15_310)">
  <path d="M7.23979 10.7399L0.309232 18.5692C0.309232 18.5692 -1.03758 23.0603 1.88138 25.9793C1.88138 25.9793 5.47375 30.0223 10.6383 27.1033L18.9471 18.7945C18.9471 18.7945 20.0712 17.8958 21.6407 18.7945L19.6205 12.7313L12.8838 10.4857L7.23717 10.7425L7.23979 10.7399Z" fill="#00ECC1"/>
  <path d="M48.9991 25.1539C49.945 26.0998 51.056 26.8544 52.2954 27.3785C53.5557 27.9235 54.9209 28.196 56.2834 28.196C57.5857 28.2169 58.867 27.9864 60.0618 27.5252C61.2593 27.064 62.3493 26.3697 63.2952 25.5102C63.9162 25.0019 64.9984 23.98 65.7687 22.3345C66.602 20.5527 66.6465 18.9413 66.6124 18.1264V5.49151C66.6124 5.03035 66.2561 4.60849 65.774 4.5456H61.6418C61.1178 4.5456 60.6959 4.98581 60.6959 5.49151V17.7202C60.6959 18.3072 60.5701 18.8967 60.3396 19.4417C60.109 19.9658 59.7945 20.4505 59.3936 20.8488C58.5552 21.6873 57.4992 22.172 56.3018 22.1511C55.7148 22.1511 55.1253 22.0253 54.6012 21.7947C53.5295 21.3335 52.691 20.4715 52.2508 19.4024C52.0412 18.8784 51.9364 18.3098 51.9364 17.7438V5.46007C51.9364 4.93602 51.5172 4.51416 50.9905 4.51416H46.9606C46.4365 4.51416 46.0146 4.95436 46.0146 5.46007V17.7412C46.0146 19.1273 46.2872 20.5134 46.8322 21.7921C47.3562 23.0734 48.0925 24.1844 48.9939 25.1513L48.9991 25.1539Z" fill="#141414"/>
  <path d="M107.509 4.51685H91.3529C90.8184 4.51685 90.3887 4.96753 90.3887 5.4811V9.46126C90.3887 9.99579 90.8184 10.4255 91.3529 10.4255H92.4246C92.9591 10.4255 93.3889 10.8552 93.3889 11.3898V17.6076C93.3889 19.0226 93.6666 20.4375 94.2247 21.7214C95.3174 24.25 97.3323 26.2859 99.8609 27.3785C101.168 27.9366 102.56 28.2144 103.975 28.2144H107.596C108.13 28.2144 108.56 27.7637 108.56 27.2501V23.2647C108.56 22.7302 108.13 22.3005 107.596 22.3005H103.996C103.375 22.3005 102.775 22.1721 102.216 21.9363C101.682 21.7004 101.187 21.3572 100.76 20.9511C100.33 20.5213 100.01 20.0287 99.7954 19.4942C99.5595 18.9361 99.4312 18.3151 99.4521 17.6941V11.4107C99.4521 10.9181 99.8163 10.512 100.309 10.4465H107.53C108.065 10.4465 108.495 9.99579 108.495 9.48222V5.52302C108.453 4.96491 108.099 4.51685 107.509 4.51685Z" fill="#141414"/>
  <path d="M153.073 28.1987H148.456C148.181 28.1987 147.932 28.0729 147.743 27.8633L138.287 16.9945V23.1075C138.292 23.1494 138.295 23.194 138.295 23.2359V27.2737C138.295 27.7925 137.873 28.2144 137.354 28.2144H133.321C132.797 28.2144 132.375 27.7925 132.375 27.2737C132.375 27.2737 132.354 26.9462 132.354 26.865V5.86627C132.354 5.78505 132.362 5.70644 132.375 5.63045V5.45752C132.375 4.93871 132.797 4.51685 133.321 4.51685H137.354C137.873 4.51685 138.295 4.93871 138.295 5.45752V9.49532C138.295 9.53725 138.289 9.58179 138.287 9.62109V15.2311L147.169 4.85224C147.337 4.64262 147.612 4.51685 147.882 4.51685H152.499C153.277 4.53781 153.696 5.43917 153.217 6.04969L145.089 15.5612C144.774 15.9176 144.774 16.4416 145.089 16.798L153.806 26.6658C154.265 27.2763 153.848 28.1777 153.073 28.1987Z" fill="#141414"/>
  <path d="M89.1074 12.1207C89.021 11.2665 88.8113 10.4359 88.4759 9.66033C88.0462 8.65154 87.4331 7.74493 86.6496 6.96147L86.6365 6.94313C85.8295 6.18588 84.9045 5.5937 83.9036 5.18494C82.8738 4.74736 81.7262 4.51416 80.5864 4.51416H69.9167C69.3874 4.51416 68.9551 4.9465 68.9551 5.47579V27.2894C68.9551 27.8003 69.3691 28.2117 69.8774 28.2117H73.9467C74.4576 28.2117 74.8742 27.7951 74.8742 27.2841V20.9877H80.5864C81.7288 20.9877 82.8765 20.7545 83.8984 20.3221C84.9072 19.9108 85.8269 19.316 86.6391 18.5613L86.6523 18.543C87.4331 17.7648 88.0488 16.8555 88.4733 15.8494C88.8847 14.9008 89.1074 13.8894 89.1415 12.8361C89.1415 12.7837 89.1415 12.7339 89.1415 12.6815L89.1074 12.1129V12.1207ZM83.0835 13.6038C82.8005 14.2641 82.2764 14.7803 81.6135 15.0502C81.2965 15.1786 80.9401 15.2441 80.5864 15.2441H74.8847V10.2656H80.5864C80.9375 10.2656 81.2912 10.3337 81.6056 10.4595C82.2712 10.7294 82.7952 11.2456 83.0835 11.9111C83.1988 12.181 83.2721 12.4823 83.2931 12.7784C83.2669 13.0614 83.1935 13.3444 83.0835 13.6038Z" fill="#141414"/>
  <path d="M120.744 28.2222C117.518 28.2222 114.859 27.1846 112.839 25.1382C110.824 23.0944 109.802 20.3484 109.802 16.9814V16.384C109.802 14.1463 110.242 12.1129 111.112 10.3417C111.99 8.55202 113.242 7.13709 114.835 6.13353C116.431 5.1326 118.231 4.62427 120.186 4.62427C123.296 4.62427 125.743 5.64355 127.462 7.65066C129.152 9.62895 130.012 12.4405 130.012 16.004V16.625C130.012 17.6967 129.139 18.5692 128.068 18.5692H116.001C116.2 19.8872 116.714 20.9563 117.516 21.7528C118.449 22.6804 119.596 23.1311 121.024 23.1311C122.67 23.1311 124.027 22.6123 125.175 21.5432C125.544 21.2 126.021 21.0113 126.522 21.0113C127.022 21.0113 127.494 21.2 127.855 21.5458L128.61 22.2664C129.37 22.9922 129.414 24.2106 128.709 24.9836C127.926 25.8431 126.97 26.5531 125.874 27.0929C124.352 27.8423 122.628 28.2222 120.747 28.2222H120.744ZM123.983 13.7978C123.862 12.485 123.485 11.4605 122.866 10.7819C122.224 10.077 121.341 9.73376 120.167 9.73376C118.994 9.73376 118.108 10.1216 117.406 10.9234C116.787 11.6282 116.35 12.5951 116.103 13.7978H123.983Z" fill="#141414"/>
  <path d="M120.744 27.6117C117.673 27.6117 115.184 26.6448 113.276 24.7111C111.369 22.7773 110.415 20.2016 110.415 16.984V16.3865C110.415 14.2327 110.829 12.3094 111.662 10.6141C112.493 8.91882 113.659 7.60084 115.163 6.65493C116.664 5.71164 118.341 5.23999 120.189 5.23999C123.126 5.23999 125.398 6.17804 126.999 8.05152C128.6 9.925 129.401 12.5793 129.401 16.0092V16.6302C129.401 17.3665 128.804 17.9639 128.068 17.9639H116.001C115.621 17.9639 115.325 18.3046 115.386 18.6793C115.619 20.1283 116.185 21.2969 117.084 22.193C118.126 23.2306 119.439 23.7494 121.022 23.7494C122.811 23.7494 124.334 23.1651 125.589 21.9991C126.11 21.5144 126.915 21.5039 127.428 21.9965L128.183 22.7171C128.707 23.2175 128.741 24.0455 128.254 24.5801C127.517 25.3871 126.632 26.0448 125.599 26.5531C124.156 27.2632 122.539 27.6196 120.744 27.6196V27.6117ZM120.165 9.1232C118.834 9.1232 117.762 9.58961 116.945 10.5198C116.229 11.3347 115.739 12.43 115.477 13.8056C115.417 14.1174 115.653 14.4109 115.97 14.4109H124.612V14.0519C124.504 12.43 124.074 11.2037 123.315 10.3731C122.557 9.54244 121.507 9.12582 120.162 9.12582L120.165 9.1232Z" fill="#141414"/>
  <path d="M6.59735 11.3819L15.8049 2.17432C15.8049 2.17432 19.3973 -0.969978 23.8884 2.17432L38.7085 16.9945C38.7085 16.9945 42.0782 21.9336 37.5844 25.9767C37.5844 25.9767 34.4401 30.2424 28.6022 26.4247L14.4555 12.7261C14.4555 12.7261 11.7619 9.35643 6.59473 11.3793L6.59735 11.3819Z" fill="#00ECC1"/>
  </g>
  <defs>
  <clipPath id="clip0_15_310">
  <rect width="154" height="27.4445" fill="white" transform="translate(0 0.77771)"/>
  </clipPath>
  </defs>
</svg>
