<svg width="143" height="144" viewBox="0 0 143 144" fill="none" xmlns="http://www.w3.org/2000/svg">
<path d="M14.6355 58.1965L3.63953 54.3895L5.93708 47.7532L7.11829 48.1622L5.28174 53.4669L8.99719 54.7532L10.7148 49.7922L11.896 50.2011L10.1784 55.1622L13.9153 56.456L15.7816 51.0653L16.9628 51.4743L14.6355 58.1965Z" fill="#141414"/>
<path d="M13.396 39.3432L17.528 39.5189L15.6617 35.8283L16.4989 34.5293L18.6399 39.2622L23.8344 39.2575L22.9971 40.5565L19.018 40.4793L20.7315 44.0714L19.8942 45.3704L17.7287 40.6758L12.5588 40.6422L13.396 39.3432Z" fill="#141414"/>
<path d="M30.451 36.308L22.1926 27.6017L23.1325 26.7101L24.0866 27.716L24.202 27.6065C24.1692 27.4288 24.1352 27.1948 24.1 26.9045C24.0649 26.6088 24.1031 26.2803 24.2144 25.9188C24.3259 25.552 24.5878 25.1731 25 24.7821C25.5332 24.2764 26.1296 23.9639 26.7892 23.8447C27.4488 23.7254 28.1246 23.8022 28.8167 24.075C29.5088 24.3478 30.1703 24.8168 30.8012 25.4819C31.4372 26.1524 31.8745 26.8418 32.113 27.5501C32.3489 28.2557 32.3926 28.9347 32.2441 29.5872C32.093 30.237 31.7536 30.8122 31.2259 31.3127C30.8192 31.6985 30.4297 31.94 30.0574 32.0374C29.6824 32.132 29.3469 32.1553 29.0507 32.1073C28.752 32.0565 28.5122 32.0073 28.3312 31.9597L28.2488 32.0379L31.4239 35.3852L30.451 36.308ZM26.152 29.8604C26.6056 30.3386 27.0759 30.694 27.5627 30.9266C28.047 31.1564 28.5215 31.2466 28.9864 31.1973C29.4486 31.1452 29.8748 30.934 30.2651 30.5639C30.6718 30.178 30.9095 29.7489 30.9783 29.2765C31.0472 28.7987 30.9769 28.3119 30.7677 27.816C30.5585 27.3148 30.2402 26.8389 29.8126 26.3882C29.3903 25.943 28.941 25.6069 28.4648 25.38C27.9886 25.1477 27.5141 25.0575 27.0411 25.1093C26.5683 25.1557 26.1258 25.3745 25.7136 25.7655C25.3178 26.1409 25.0805 26.5566 25.0014 27.0127C24.9198 27.466 24.9797 27.9365 25.1812 28.4241C25.3801 28.909 25.7037 29.3877 26.152 29.8604Z" fill="#141414"/>
<path d="M34.425 14.0427L40.616 23.8955L39.4806 24.6089L33.2897 14.7562L34.425 14.0427Z" fill="#141414"/>
<path d="M50.4101 19.2581C49.6736 19.5378 48.9607 19.608 48.2716 19.4686C47.5861 19.3279 46.9678 19.0015 46.4168 18.4896C45.8693 17.9763 45.4355 17.2982 45.1154 16.4555C44.7926 15.6056 44.6648 14.8053 44.7322 14.0544C44.803 13.3022 45.0481 12.6459 45.4673 12.0855C45.8901 11.5238 46.4698 11.1031 47.2063 10.8233C47.9428 10.5435 48.6539 10.474 49.3394 10.6148C50.0285 10.7542 50.6475 11.0823 51.1963 11.5991C51.7487 12.1146 52.1863 12.7973 52.5091 13.6471C52.8292 14.4899 52.9532 15.2856 52.881 16.0343C52.8123 16.7816 52.5666 17.4361 52.1438 17.9978C51.7245 18.5582 51.1466 18.9783 50.4101 19.2581ZM49.9824 18.132C50.5419 17.9195 50.9477 17.6012 51.2 17.1772C51.4522 16.7532 51.5763 16.2745 51.5723 15.7412C51.5683 15.2079 51.4627 14.6686 51.2556 14.1232C51.0484 13.5779 50.7687 13.1027 50.4163 12.6977C50.0639 12.2926 49.6519 12.0135 49.1805 11.8603C48.709 11.7072 48.1935 11.7368 47.634 11.9493C47.0745 12.1619 46.6693 12.4819 46.4184 12.9094C46.1675 13.337 46.0448 13.8192 46.0502 14.3561C46.0555 14.8929 46.1618 15.434 46.3689 15.9793C46.576 16.5247 46.8551 16.9981 47.2062 17.3996C47.5572 17.8011 47.9678 18.0767 48.438 18.2263C48.9081 18.376 49.4229 18.3445 49.9824 18.132Z" fill="#141414"/>
<path d="M61.0063 16.0794L59.7151 7.44813L60.9963 7.25647L61.1913 8.56014L61.2812 8.54669C61.3747 8.09609 61.6075 7.70697 61.9798 7.37934C62.3521 7.05171 62.7968 6.84923 63.3137 6.77189C63.4111 6.75732 63.5332 6.74098 63.6798 6.72287C63.8265 6.70476 63.9378 6.69384 64.0139 6.69013L64.2156 8.03876C64.169 8.03424 64.0635 8.0328 63.899 8.03442C63.7378 8.03173 63.5691 8.04356 63.393 8.0699C62.9734 8.13267 62.612 8.27675 62.3087 8.50214C62.0085 8.72322 61.7859 9.00165 61.6408 9.33742C61.4989 9.66888 61.4571 10.0294 61.5154 10.419L62.3325 15.881L61.0063 16.0794Z" fill="#141414"/>
<path d="M75.2338 15.471C74.3947 15.4156 73.6832 15.1825 73.0992 14.7719C72.5191 14.3577 72.0868 13.8053 71.8022 13.1146C71.5216 12.4203 71.4108 11.6272 71.4698 10.7352C71.5287 9.84321 71.7432 9.06779 72.1132 8.40894C72.4873 7.74656 72.9799 7.24386 73.5909 6.90084C74.206 6.55429 74.9067 6.40699 75.6928 6.45895C76.1464 6.48893 76.5893 6.59413 77.0215 6.77454C77.4537 6.95496 77.84 7.22724 78.1804 7.59139C78.521 7.95176 78.7807 8.41686 78.9594 8.98671C79.1381 9.55656 79.2006 10.2478 79.1469 11.0604L79.1094 11.6274L72.3968 11.1837L72.4732 10.0271L77.8252 10.3809C77.8577 9.8895 77.7884 9.44457 77.6173 9.04605C77.45 8.64779 77.1942 8.32529 76.8499 8.07856C76.5093 7.83208 76.0972 7.69285 75.6134 7.66088C75.0805 7.62565 74.6106 7.72746 74.2038 7.9663C73.8011 8.20162 73.4819 8.52217 73.2463 8.92797C73.0106 9.33377 72.877 9.77668 72.8453 10.2567L72.7943 11.0277C72.7508 11.6854 72.8274 12.2504 73.0239 12.7227C73.2245 13.1915 73.521 13.5584 73.9135 13.8235C74.3062 14.0849 74.7728 14.2334 75.3133 14.2691C75.6648 14.2923 75.9855 14.2642 76.2755 14.1847C76.5695 14.1016 76.827 13.9668 77.0482 13.7802C77.2695 13.5898 77.4469 13.3472 77.5803 13.0523L78.8489 13.5006C78.6839 13.9301 78.4297 14.3005 78.0865 14.6118C77.7435 14.9194 77.3296 15.1502 76.8449 15.3042C76.3605 15.4544 75.8235 15.51 75.2338 15.471Z" fill="#141414"/>
<path d="M101.224 9.8229L102.684 10.6582L101.319 21.0058L101.437 21.0735L109.667 14.6541L111.127 15.4894L105.347 25.5891L104.203 24.9344L108.594 17.261L108.496 17.2045L100.948 23.0719L99.8438 22.4398L101.079 12.9603L100.98 12.9039L96.589 20.5773L95.4449 19.9226L101.224 9.8229Z" fill="#141414"/>
<path d="M113.79 33.3566C113.246 32.7868 112.904 32.1573 112.765 31.4682C112.628 30.7819 112.688 30.0854 112.946 29.3787C113.206 28.6747 113.662 28.0114 114.314 27.3889C114.971 26.7611 115.659 26.3322 116.377 26.1023C117.098 25.8752 117.798 25.8458 118.477 26.0142C119.159 26.1853 119.772 26.5558 120.316 27.1257C120.86 27.6955 121.201 28.3236 121.337 29.0099C121.477 29.699 121.415 30.3969 121.152 31.1034C120.892 31.8128 120.433 32.4813 119.776 33.1091C119.124 33.7317 118.439 34.1552 117.721 34.3798C117.006 34.6071 116.307 34.6351 115.625 34.464C114.946 34.2956 114.334 33.9265 113.79 33.3566ZM114.661 32.5248C115.075 32.9576 115.526 33.2078 116.015 33.2754C116.503 33.3429 116.993 33.2712 117.482 33.0601C117.972 32.8491 118.428 32.5421 118.85 32.1393C119.272 31.7365 119.601 31.294 119.837 30.8118C120.073 30.3297 120.17 29.8416 120.128 29.3477C120.086 28.8538 119.858 28.3904 119.445 27.9575C119.032 27.5246 118.579 27.2758 118.088 27.2108C117.596 27.1459 117.104 27.2202 116.612 27.4339C116.119 27.6476 115.662 27.9558 115.24 28.3587C114.818 28.7615 114.49 29.2027 114.257 29.6822C114.024 30.1618 113.929 30.6472 113.974 31.1385C114.019 31.6298 114.248 32.0919 114.661 32.5248Z" fill="#141414"/>
<path d="M120.838 41.8827L128.288 37.3375L128.963 38.4434L127.838 39.1299L127.885 39.2075C128.336 39.1185 128.785 39.1817 129.232 39.3974C129.679 39.613 130.038 39.9439 130.31 40.3902C130.362 40.4742 130.424 40.5803 130.498 40.7084C130.572 40.8365 130.625 40.9348 130.658 41.0035L129.494 41.7137C129.48 41.6689 129.44 41.5711 129.375 41.4203C129.314 41.2706 129.238 41.1198 129.145 40.9678C128.924 40.6057 128.651 40.3287 128.325 40.1368C128.005 39.9463 127.662 39.8494 127.296 39.8463C126.936 39.8444 126.587 39.946 126.251 40.1512L121.536 43.0274L120.838 41.8827Z" fill="#141414"/>
<path d="M126.93 54.7552C126.655 53.9606 126.593 53.2144 126.744 52.5167C126.9 51.8213 127.241 51.2082 127.767 50.6775C128.298 50.1491 128.985 49.7386 129.83 49.4462C130.675 49.1537 131.473 49.0498 132.223 49.1346C132.979 49.2217 133.634 49.4801 134.187 49.9097C134.746 50.3417 135.154 50.93 135.412 51.6745C135.56 52.104 135.636 52.553 135.637 53.0213C135.639 53.4897 135.539 53.9515 135.335 54.4066C135.136 54.8605 134.808 55.2806 134.353 55.6668C133.897 56.053 133.285 56.3793 132.515 56.6457L131.978 56.8316L129.777 50.4746L130.872 50.0954L132.627 55.1638C133.093 55.0027 133.476 54.7659 133.776 54.4534C134.078 54.1444 134.276 53.7834 134.369 53.3702C134.464 52.9606 134.432 52.5268 134.273 52.0686C134.099 51.5639 133.822 51.1706 133.444 50.8886C133.071 50.609 132.651 50.4396 132.186 50.3803C131.72 50.321 131.26 50.37 130.806 50.5274L130.075 50.7802C129.453 50.9958 128.962 51.286 128.603 51.6507C128.249 52.0178 128.026 52.4336 127.935 52.8983C127.846 53.3617 127.891 53.8493 128.068 54.3612C128.184 54.694 128.334 54.9786 128.52 55.2148C128.711 55.4534 128.935 55.6383 129.193 55.7695C129.455 55.8994 129.747 55.9685 130.071 55.9768L130.151 57.3199C129.691 57.3348 129.251 57.2447 128.831 57.0495C128.414 56.853 128.04 56.5614 127.71 56.1747C127.383 55.7868 127.123 55.3136 126.93 54.7552Z" fill="#141414"/>
<path d="M14.6355 85.4769L3.63953 89.2838L5.93708 95.9201L7.11829 95.5111L5.28174 90.2064L8.99719 88.9201L10.7148 93.8812L11.896 93.4722L10.1784 88.5112L13.9153 87.2174L15.7816 92.608L16.9628 92.1991L14.6355 85.4769Z" fill="#141414"/>
<path d="M13.396 104.33L17.528 104.154L15.6617 107.845L16.4989 109.144L18.6399 104.411L23.8344 104.416L22.9971 103.117L19.018 103.194L20.7315 99.6019L19.8942 98.3029L17.7287 102.998L12.5588 103.031L13.396 104.33Z" fill="#141414"/>
<path d="M30.451 107.365L22.1926 116.072L23.1325 116.963L24.0866 115.957L24.202 116.067C24.1692 116.245 24.1352 116.479 24.1 116.769C24.0649 117.065 24.1031 117.393 24.2144 117.755C24.3259 118.121 24.5878 118.5 25 118.891C25.5332 119.397 26.1296 119.709 26.7892 119.829C27.4488 119.948 28.1246 119.871 28.8167 119.598C29.5088 119.325 30.1703 118.857 30.8012 118.191C31.4372 117.521 31.8745 116.832 32.113 116.123C32.3489 115.418 32.3926 114.739 32.2441 114.086C32.093 113.436 31.7536 112.861 31.2259 112.361C30.8192 111.975 30.4297 111.733 30.0574 111.636C29.6824 111.541 29.3469 111.518 29.0507 111.566C28.752 111.617 28.5122 111.666 28.3312 111.714L28.2488 111.635L31.4239 108.288L30.451 107.365ZM26.152 113.813C26.6056 113.335 27.0759 112.979 27.5627 112.747C28.047 112.517 28.5215 112.427 28.9864 112.476C29.4486 112.528 29.8748 112.739 30.2651 113.109C30.6718 113.495 30.9095 113.924 30.9783 114.397C31.0472 114.875 30.9769 115.361 30.7677 115.857C30.5585 116.359 30.2402 116.834 29.8126 117.285C29.3903 117.73 28.941 118.066 28.4648 118.293C27.9886 118.526 27.5141 118.616 27.0411 118.564C26.5683 118.518 26.1258 118.299 25.7136 117.908C25.3178 117.532 25.0805 117.117 25.0014 116.661C24.9198 116.207 24.9797 115.737 25.1812 115.249C25.3801 114.764 25.7037 114.286 26.152 113.813Z" fill="#141414"/>
<path d="M34.425 129.631L40.616 119.778L39.4806 119.064L33.2897 128.917L34.425 129.631Z" fill="#141414"/>
<path d="M50.4101 124.415C49.6736 124.136 48.9607 124.065 48.2716 124.205C47.5861 124.345 46.9678 124.672 46.4168 125.184C45.8693 125.697 45.4355 126.375 45.1154 127.218C44.7926 128.068 44.6648 128.868 44.7322 129.619C44.803 130.371 45.0481 131.027 45.4673 131.588C45.8901 132.15 46.4698 132.57 47.2063 132.85C47.9428 133.13 48.6539 133.199 49.3394 133.059C50.0285 132.919 50.6475 132.591 51.1963 132.074C51.7487 131.559 52.1863 130.876 52.5091 130.026C52.8292 129.183 52.9532 128.388 52.881 127.639C52.8123 126.892 52.5666 126.237 52.1438 125.675C51.7245 125.115 51.1466 124.695 50.4101 124.415ZM49.9824 125.541C50.5419 125.754 50.9477 126.072 51.2 126.496C51.4522 126.92 51.5763 127.399 51.5723 127.932C51.5683 128.465 51.4627 129.005 51.2556 129.55C51.0484 130.095 50.7687 130.571 50.4163 130.976C50.0639 131.381 49.6519 131.66 49.1805 131.813C48.709 131.966 48.1935 131.937 47.634 131.724C47.0745 131.511 46.6693 131.191 46.4184 130.764C46.1675 130.336 46.0448 129.854 46.0502 129.317C46.0555 128.78 46.1618 128.239 46.3689 127.694C46.576 127.149 46.8551 126.675 47.2062 126.274C47.5572 125.872 47.9678 125.597 48.438 125.447C48.9081 125.297 49.4229 125.329 49.9824 125.541Z" fill="#141414"/>
<path d="M61.0063 127.594L59.7151 136.225L60.9963 136.417L61.1913 135.113L61.2812 135.127C61.3747 135.577 61.6075 135.966 61.9798 136.294C62.3521 136.622 62.7968 136.824 63.3137 136.901C63.4111 136.916 63.5332 136.932 63.6798 136.95C63.8265 136.969 63.9378 136.979 64.0139 136.983L64.2156 135.635C64.169 135.639 64.0635 135.641 63.899 135.639C63.7378 135.642 63.5691 135.63 63.393 135.603C62.9734 135.541 62.612 135.397 62.3087 135.171C62.0085 134.95 61.7859 134.672 61.6408 134.336C61.4989 134.004 61.4571 133.644 61.5154 133.254L62.3325 127.792L61.0063 127.594Z" fill="#141414"/>
<path d="M75.2338 128.202C74.3947 128.258 73.6832 128.491 73.0992 128.901C72.5191 129.316 72.0868 129.868 71.8022 130.559C71.5216 131.253 71.4108 132.046 71.4698 132.938C71.5287 133.83 71.7432 134.606 72.1132 135.264C72.4873 135.927 72.9799 136.429 73.5909 136.773C74.206 137.119 74.9067 137.266 75.6928 137.214C76.1464 137.184 76.5893 137.079 77.0215 136.899C77.4537 136.718 77.84 136.446 78.1804 136.082C78.521 135.722 78.7807 135.256 78.9594 134.687C79.1381 134.117 79.2006 133.426 79.1469 132.613L79.1094 132.046L72.3968 132.49L72.4732 133.646L77.8252 133.292C77.8577 133.784 77.7884 134.229 77.6173 134.627C77.45 135.026 77.1942 135.348 76.8499 135.595C76.5093 135.841 76.0972 135.98 75.6134 136.012C75.0805 136.048 74.6106 135.946 74.2038 135.707C73.8011 135.472 73.4819 135.151 73.2463 134.745C73.0106 134.34 72.877 133.897 72.8453 133.417L72.7943 132.646C72.7508 131.988 72.8274 131.423 73.0239 130.951C73.2245 130.482 73.521 130.115 73.9135 129.85C74.3062 129.588 74.7728 129.44 75.3133 129.404C75.6648 129.381 75.9855 129.409 76.2755 129.489C76.5695 129.572 76.827 129.707 77.0482 129.893C77.2695 130.084 77.4469 130.326 77.5803 130.621L78.8489 130.173C78.6839 129.743 78.4297 129.373 78.0865 129.061C77.7435 128.754 77.3296 128.523 76.8449 128.369C76.3605 128.219 75.8235 128.163 75.2338 128.202Z" fill="#141414"/>
<path d="M101.224 133.85L102.684 133.015L101.319 122.668L101.437 122.6L109.667 129.019L111.127 128.184L105.347 118.084L104.203 118.739L108.594 126.412L108.496 126.469L100.948 120.601L99.8438 121.234L101.079 130.713L100.98 130.769L96.589 123.096L95.4449 123.751L101.224 133.85Z" fill="#141414"/>
<path d="M113.79 110.317C113.246 110.887 112.904 111.516 112.765 112.205C112.628 112.891 112.688 113.588 112.946 114.295C113.206 114.999 113.662 115.662 114.314 116.284C114.971 116.912 115.659 117.341 116.377 117.571C117.098 117.798 117.798 117.828 118.477 117.659C119.159 117.488 119.772 117.118 120.316 116.548C120.86 115.978 121.201 115.35 121.337 114.663C121.477 113.974 121.415 113.276 121.152 112.57C120.892 111.861 120.433 111.192 119.776 110.564C119.124 109.942 118.439 109.518 117.721 109.294C117.006 109.066 116.307 109.038 115.625 109.209C114.946 109.378 114.334 109.747 113.79 110.317ZM114.661 111.149C115.075 110.716 115.526 110.466 116.015 110.398C116.503 110.33 116.993 110.402 117.482 110.613C117.972 110.824 118.428 111.131 118.85 111.534C119.272 111.937 119.601 112.379 119.837 112.862C120.073 113.344 120.17 113.832 120.128 114.326C120.086 114.82 119.858 115.283 119.445 115.716C119.032 116.149 118.579 116.398 118.088 116.463C117.596 116.527 117.104 116.453 116.612 116.239C116.119 116.026 115.662 115.718 115.24 115.315C114.818 114.912 114.49 114.471 114.257 113.991C114.024 113.512 113.929 113.026 113.974 112.535C114.019 112.044 114.248 111.581 114.661 111.149Z" fill="#141414"/>
<path d="M120.838 101.791L128.288 106.336L128.963 105.23L127.838 104.543L127.885 104.466C128.336 104.555 128.785 104.492 129.232 104.276C129.679 104.06 130.038 103.729 130.31 103.283C130.362 103.199 130.424 103.093 130.498 102.965C130.572 102.837 130.625 102.738 130.658 102.67L129.494 101.96C129.48 102.004 129.44 102.102 129.375 102.253C129.314 102.403 129.238 102.554 129.145 102.705C128.924 103.068 128.651 103.345 128.325 103.536C128.005 103.727 127.662 103.824 127.296 103.827C126.936 103.829 126.587 103.727 126.251 103.522L121.536 100.646L120.838 101.791Z" fill="#141414"/>
<path d="M126.93 88.9181C126.655 89.7127 126.593 90.4589 126.744 91.1566C126.9 91.852 127.241 92.4651 127.767 92.9959C128.298 93.5243 128.985 93.9347 129.83 94.2272C130.675 94.5196 131.473 94.6235 132.223 94.5387C132.979 94.4516 133.634 94.1932 134.187 93.7636C134.746 93.3316 135.154 92.7434 135.412 91.9988C135.56 91.5693 135.636 91.1204 135.637 90.652C135.639 90.1836 135.539 89.7219 135.335 89.2667C135.136 88.8128 134.808 88.3927 134.353 88.0065C133.897 87.6203 133.285 87.294 132.515 87.0276L131.978 86.8417L129.777 93.1988L130.872 93.578L132.627 88.5095C133.093 88.6706 133.476 88.9074 133.776 89.22C134.078 89.5289 134.276 89.89 134.369 90.3031C134.464 90.7127 134.432 91.1466 134.273 91.6048C134.099 92.1095 133.822 92.5028 133.444 92.7847C133.071 93.0643 132.651 93.2338 132.186 93.2931C131.72 93.3524 131.26 93.3033 130.806 93.146L130.075 92.8932C129.453 92.6775 128.962 92.3874 128.603 92.0226C128.249 91.6556 128.026 91.2397 127.935 90.7751C127.846 90.3117 127.891 89.824 128.068 89.3122C128.184 88.9793 128.334 88.6947 128.52 88.4585C128.711 88.2199 128.935 88.035 129.193 87.9038C129.455 87.7739 129.747 87.7048 130.071 87.6966L130.151 86.3534C129.691 86.3385 129.251 86.4287 128.831 86.6239C128.414 86.8203 128.04 87.1119 127.71 87.4986C127.383 87.8865 127.123 88.3597 126.93 88.9181Z" fill="#141414"/>
<circle cx="134" cy="72" r="2" fill="#141414"/>
<circle cx="7" cy="72" r="2" fill="#141414"/>
</svg>
